<?xml version="1.0" encoding="utf-8"?>
<!-- Generator: Adobe Illustrator 25.0.1, SVG Export Plug-In . SVG Version: 6.00 Build 0)  -->
<svg version="1.1" id="Layer_1" xmlns="http://www.w3.org/2000/svg" xmlns:xlink="http://www.w3.org/1999/xlink" x="0px" y="0px"
	 viewBox="0 0 1966 633.4" style="enable-background:new 0 0 1966 633.4;" xml:space="preserve">
<style type="text/css">
	.st0{fill:#3E9278;}
	.st1{fill:#74BAA0;}
	.st2{fill:#216651;}
	.st3{fill:#CCD9CE;}
	.st4{fill:#FFFFFF;}
	.st5{fill:#001911;}
	.st6{fill:#06261B;}
	.st7{fill:#C6DBCE;}
	.st8{fill:#5BBD9C;}
	.st9{fill:#009576;}
	.st10{fill:none;stroke:#5BBD9C;stroke-miterlimit:10;}
	.st11{fill:none;stroke:#000000;stroke-width:2.4705;stroke-miterlimit:10;}
	.st12{fill:none;stroke:#74BAA0;stroke-miterlimit:10;}
	.st13{clip-path:url(#SVGID_2_);}
	.st14{opacity:0.75;fill:url(#);}
	.st15{clip-path:url(#SVGID_3_);}
	.st16{opacity:0.6;fill:url(#);}
</style>
<g>
	<g>
		<g>
			<path class="st5" d="M111.9,63.1h6.1l9.9,16.8V63.1h4.8v24h-6l-10-16.9V87h-4.8V63.1z"/>
			<path class="st5" d="M138.4,85.1c-1.1-1.6-1.7-3.9-1.7-6.7c0-3.4,0.9-6,2.6-7.8c1.7-1.8,4.2-2.7,7.5-2.7c1.8,0,4,0.3,6.4,0.9V87
				h-4.8l0.1-3h-0.1c-0.6,1.1-1.4,2-2.3,2.6c-0.9,0.6-1.9,0.9-3,0.9C141.1,87.6,139.6,86.8,138.4,85.1z M146.3,82
				c0.7-0.8,1.4-1.8,2-3.2v-6c-0.8-0.2-1.5-0.3-2.3-0.3c-1.4,0-2.5,0.5-3.3,1.5c-0.7,1-1.1,2.4-1.1,4.4c0,1.5,0.2,2.7,0.6,3.6
				c0.4,0.9,1,1.3,1.8,1.3C144.8,83.2,145.6,82.8,146.3,82z"/>
			<path class="st5" d="M158.1,68.5h5v2.9c1.5-2.3,3.4-3.4,5.9-3.4c1.4,0,2.6,0.3,3.6,1c1,0.7,1.7,1.6,2.2,2.8
				c0.8-1.3,1.8-2.3,2.8-2.9s2.2-0.9,3.6-0.9c2,0,3.5,0.6,4.7,1.8s1.7,2.8,1.7,5V87h-5.1V75.5c0-1-0.2-1.7-0.7-2.3
				c-0.5-0.5-1.1-0.8-1.9-0.8c-1,0-1.9,0.4-2.7,1.2c-0.8,0.8-1.5,1.9-1.9,3.1V87h-5.1V75.5c0-0.9-0.2-1.7-0.7-2.2
				c-0.5-0.6-1.1-0.8-1.9-0.8c-0.9,0-1.7,0.3-2.5,1c-0.8,0.7-1.4,1.6-1.9,2.8V87h-5.1V68.5z"/>
			<path class="st5" d="M191.4,82.7h3.5v-9.8h-3.5v-4.4h8.5v14.2h3.1V87h-11.6V82.7z M194.2,60.8h5.8v4.7h-5.8V60.8z"/>
			<path class="st5" d="M206.4,68.5h5v3.2c0.8-1.3,1.7-2.2,2.7-2.8c1-0.6,2.2-0.9,3.5-0.9c2,0,3.6,0.6,4.7,1.8s1.7,2.8,1.7,5V87
				h-5.1V75.5c0-1-0.2-1.7-0.7-2.3c-0.5-0.5-1.1-0.8-1.9-0.8c-1,0-1.9,0.4-2.7,1.1c-0.9,0.7-1.5,1.6-2,2.7V87h-5.1V68.5z"/>
			<path class="st5" d="M228.2,94.4l1-4.5c2.3,0.7,4.2,1,5.8,1c1.2,0,2.2-0.2,2.8-0.6c0.7-0.4,1.1-1,1.4-1.8
				c0.3-0.8,0.4-1.9,0.5-3.3h-0.1c-0.7,0.8-1.5,1.4-2.3,1.8c-0.9,0.4-1.9,0.6-2.9,0.6c-2.1,0-3.8-0.8-4.9-2.4
				c-1.2-1.6-1.8-3.8-1.8-6.6c0-3.4,0.9-6,2.6-7.8c1.8-1.8,4.3-2.7,7.6-2.7c1.9,0,4.2,0.3,6.8,0.9c0,4.9,0.1,8.7,0.1,11.2
				c0,2.2,0,3.9,0,5c0,3.4-0.9,6-2.6,7.6c-1.7,1.7-4.2,2.5-7.5,2.5C232.3,95.2,230.2,94.9,228.2,94.4z M237.7,82.3
				c0.7-0.6,1.3-1.3,1.8-2.3l0-7.2c-0.8-0.2-1.6-0.3-2.3-0.3c-1.5,0-2.7,0.5-3.4,1.5c-0.8,1-1.2,2.4-1.2,4.3c0,1.6,0.3,2.8,0.8,3.7
				c0.5,0.9,1.3,1.3,2.2,1.3C236.3,83.2,237.1,82.9,237.7,82.3z"/>
		</g>
	</g>
	<g>
		<g>
			<path class="st0" d="M116.4,169.7c-3.2-3-4.8-7.3-4.8-12.9c0-3.8,0.8-7.1,2.3-10c1.5-2.9,3.6-5.1,6.4-6.7
				c2.8-1.6,5.9-2.4,9.5-2.4c2.9,0,5.8,0.5,8.5,1.6l-1.4,6.8c-2.4-1.1-4.7-1.6-7-1.6c-3.2,0-5.8,1.1-7.6,3.2
				c-1.9,2.1-2.8,4.9-2.8,8.4c0,3.6,1,6.3,3,8.3c2,2,4.7,3,8.2,3c2.3,0,4.5-0.4,6.7-1.1l1.2,6.5c-2.6,1-5.5,1.5-8.8,1.5
				C124,174.3,119.6,172.7,116.4,169.7z"/>
			<path class="st0" d="M144.9,170.8c-1.7-2.4-2.5-5.7-2.5-9.8c0-5,1.3-8.8,3.8-11.5c2.5-2.6,6.2-3.9,11-3.9c2.7,0,5.8,0.4,9.4,1.3
				v26.8h-7.1l0.2-4.3h-0.2c-0.9,1.7-2,2.9-3.4,3.8c-1.3,0.9-2.8,1.3-4.5,1.3C148.8,174.4,146.5,173.2,144.9,170.8z M147.5,139.2
				l8.9-7l8.9,7l-2.3,3.7l-6.6-3.6l-6.6,3.6L147.5,139.2z M156.4,166.1c1.1-1.2,2-2.7,3-4.7v-8.9c-1.1-0.3-2.3-0.5-3.4-0.5
				c-2.1,0-3.7,0.7-4.8,2.2c-1.1,1.4-1.6,3.6-1.6,6.4c0,2.2,0.3,4,1,5.3c0.6,1.3,1.5,1.9,2.7,1.9
				C154.3,167.9,155.4,167.3,156.4,166.1z"/>
			<path class="st0" d="M173.9,146.3h7.3v4.2c2.2-3.3,5.1-5,8.7-5c2.1,0,3.9,0.5,5.3,1.5c1.5,1,2.5,2.4,3.2,4.2
				c1.2-1.9,2.6-3.4,4.2-4.3c1.5-0.9,3.3-1.4,5.3-1.4c2.9,0,5.2,0.9,6.9,2.6c1.6,1.7,2.5,4.2,2.5,7.3v18.1h-7.5v-17
				c0-1.4-0.3-2.5-1-3.3c-0.7-0.8-1.6-1.2-2.8-1.2c-1.4,0-2.8,0.6-4,1.8c-1.2,1.2-2.2,2.7-2.8,4.6v15.1h-7.5v-17
				c0-1.4-0.4-2.5-1.1-3.3c-0.7-0.8-1.6-1.2-2.8-1.2c-1.3,0-2.5,0.5-3.7,1.5c-1.1,1-2.1,2.3-2.8,4.1v15.9h-7.5V146.3z"/>
			<path class="st5" d="M226.6,170.6c-2.5-2.5-3.8-6.1-3.8-10.6c0-2.9,0.5-5.5,1.6-7.7c1.1-2.2,2.6-3.8,4.6-5c2-1.2,4.3-1.7,7-1.7
				c4,0,7,1.3,9.1,3.8c2.1,2.5,3.2,6.2,3.2,11c0,0.8,0,1.4-0.1,1.8h-18c0.4,1.9,1.2,3.3,2.4,4.3c1.3,1,3,1.5,5.1,1.5
				c1.3,0,2.7-0.2,4.1-0.5c1.4-0.3,2.7-0.8,3.7-1.4l1.2,6c-1.4,0.7-3,1.3-4.7,1.7s-3.5,0.6-5.2,0.6
				C232.6,174.4,229.1,173.1,226.6,170.6z M241.2,156.6c-0.1-1.5-0.6-2.7-1.6-3.6s-2.2-1.4-3.8-1.4c-1.5,0-2.8,0.4-3.7,1.3
				c-1,0.9-1.6,2.1-1.8,3.7H241.2z"/>
			<path class="st5" d="M254.1,146.3h7.5v4.5h0.4c1-1.8,2-3.1,3-4c1-0.8,2.3-1.3,3.8-1.3c0.6,0,1.2,0.1,1.6,0.2l-0.8,8.1
				c-0.9-0.2-1.7-0.4-2.2-0.4c-0.8,0-1.5,0.2-2.1,0.5c-0.6,0.3-1.2,0.7-1.6,1.3c-0.5,0.5-1.2,1.3-2,2.4v16h-7.5V146.3z"/>
			<path class="st5" d="M275.3,170.8c-1.7-2.4-2.5-5.7-2.5-9.8c0-5,1.3-8.8,3.8-11.5c2.5-2.6,6.2-3.9,11-3.9c2.7,0,5.8,0.4,9.4,1.3
				v26.8h-7.1l0.2-4.3h-0.2c-0.9,1.7-2,2.9-3.4,3.8c-1.3,0.9-2.8,1.3-4.5,1.3C279.2,174.4,277,173.2,275.3,170.8z M286.9,166.1
				c1.1-1.2,2-2.7,3-4.7v-8.9c-1.1-0.3-2.3-0.5-3.4-0.5c-2.1,0-3.7,0.7-4.8,2.2c-1.1,1.4-1.6,3.6-1.6,6.4c0,2.2,0.3,4,1,5.3
				c0.6,1.3,1.5,1.9,2.6,1.9C284.7,167.9,285.8,167.3,286.9,166.1z"/>
			<path class="st5" d="M324.3,162.3h-11.1l0.5-4h10.5v-10.5l4-0.5v11h10.9l-0.5,4h-10.4v10.4l-4,0.5V162.3z"/>
			<path class="st0" d="M356.3,138.3h7.7v35.3h-7.7V138.3z"/>
			<path class="st0" d="M371.6,146.3h7.3v4.7c1.1-1.9,2.4-3.3,3.9-4.1c1.5-0.9,3.2-1.3,5.2-1.3c2.9,0,5.2,0.9,6.9,2.6
				c1.7,1.7,2.5,4.2,2.5,7.3v18.1h-7.5v-17c0-1.4-0.4-2.5-1.1-3.3c-0.7-0.8-1.7-1.2-2.9-1.2c-1.4,0-2.8,0.5-4,1.6
				c-1.3,1.1-2.2,2.4-2.9,4v15.8h-7.5V146.3z"/>
			<path class="st0" d="M407.6,172.4c-1.4-1.3-2.1-3.1-2.1-5.5v-14.3h-4.2v-6.4h4.2v-5.8c2.5-0.4,5-0.7,7.4-1v6.8h6.9v6.4h-6.9v12.9
				c0,0.7,0.2,1.3,0.7,1.7c0.4,0.4,1.1,0.6,1.9,0.6c1,0,2.1-0.2,3.4-0.7l1.6,5.6c-2.3,1.1-4.6,1.6-7,1.6
				C410.9,174.4,409,173.7,407.6,172.4z"/>
			<path class="st0" d="M427,170.6c-2.5-2.5-3.8-6.1-3.8-10.6c0-2.9,0.5-5.5,1.6-7.7c1.1-2.2,2.6-3.8,4.6-5s4.3-1.7,7-1.7
				c4,0,7,1.3,9.1,3.8c2.1,2.5,3.2,6.2,3.2,11c0,0.8,0,1.4-0.1,1.8h-18c0.4,1.9,1.2,3.3,2.4,4.3c1.3,1,3,1.5,5.1,1.5
				c1.3,0,2.7-0.2,4.1-0.5c1.4-0.3,2.7-0.8,3.7-1.4l1.2,6c-1.4,0.7-3,1.3-4.7,1.7c-1.7,0.4-3.5,0.6-5.2,0.6
				C433,174.4,429.5,173.1,427,170.6z M441.6,156.6c-0.1-1.5-0.6-2.7-1.6-3.6s-2.2-1.4-3.8-1.4c-1.5,0-2.8,0.4-3.7,1.3
				c-1,0.9-1.6,2.1-1.8,3.7H441.6z"/>
			<path class="st5" d="M452.6,167.2h4.8v-25.9h-4.6v-6.4h12v32.3h4.8v6.4h-17.1V167.2z"/>
			<path class="st5" d="M473.7,167.2h5.1v-14.5h-5.1v-6.4h12.6v20.9h4.6v6.4h-17.1V167.2z M477.8,134.9h8.5v6.9h-8.5V134.9z"/>
			<path class="st5" d="M495.4,184.4l1.4-6.6c3.4,1,6.2,1.5,8.5,1.5c1.8,0,3.2-0.3,4.2-0.8c1-0.6,1.7-1.4,2.1-2.6
				c0.4-1.2,0.6-2.8,0.7-4.9h-0.2c-1,1.1-2.1,2-3.4,2.6c-1.3,0.6-2.7,0.9-4.3,0.9c-3.1,0-5.5-1.2-7.3-3.5c-1.7-2.3-2.6-5.6-2.6-9.8
				c0-5.1,1.3-8.9,3.9-11.6s6.3-4,11.2-4c2.8,0,6.1,0.4,10,1.3c0.1,7.3,0.1,12.8,0.1,16.4c0,3.3,0,5.8-0.1,7.4
				c-0.1,5-1.3,8.8-3.8,11.2c-2.5,2.5-6.2,3.7-11.1,3.7C501.4,185.6,498.4,185.2,495.4,184.4z M509.4,166.6c1-0.8,1.9-2,2.7-3.4
				l-0.1-10.7c-1.2-0.3-2.3-0.5-3.4-0.5c-2.2,0-3.9,0.7-5.1,2.2c-1.1,1.4-1.7,3.6-1.7,6.3c0,2.3,0.4,4.1,1.1,5.4
				c0.8,1.3,1.8,1.9,3.3,1.9C507.4,167.9,508.4,167.4,509.4,166.6z"/>
			<path class="st5" d="M528.8,170.6c-2.5-2.5-3.8-6.1-3.8-10.6c0-2.9,0.5-5.5,1.6-7.7c1.1-2.2,2.6-3.8,4.6-5s4.3-1.7,7-1.7
				c4,0,7,1.3,9.1,3.8c2.1,2.5,3.2,6.2,3.2,11c0,0.8,0,1.4-0.1,1.8h-18c0.4,1.9,1.2,3.3,2.4,4.3c1.3,1,3,1.5,5.1,1.5
				c1.3,0,2.7-0.2,4.1-0.5c1.4-0.3,2.7-0.8,3.7-1.4l1.2,6c-1.4,0.7-3,1.3-4.7,1.7c-1.7,0.4-3.5,0.6-5.2,0.6
				C534.8,174.4,531.3,173.1,528.8,170.6z M543.4,156.6c-0.1-1.5-0.6-2.7-1.6-3.6s-2.2-1.4-3.8-1.4c-1.5,0-2.8,0.4-3.7,1.3
				c-1,0.9-1.6,2.1-1.8,3.7H543.4z"/>
			<path class="st5" d="M556.2,146.3h7.3v4.7c1.1-1.9,2.4-3.3,3.9-4.1c1.5-0.9,3.2-1.3,5.2-1.3c2.9,0,5.2,0.9,6.9,2.6
				s2.5,4.2,2.5,7.3v18.1h-7.5v-17c0-1.4-0.4-2.5-1.1-3.3s-1.7-1.2-2.9-1.2c-1.4,0-2.8,0.5-4,1.6s-2.2,2.4-2.9,4v15.8h-7.5V146.3z"
				/>
			<path class="st5" d="M592.2,172.4c-1.4-1.3-2.1-3.1-2.1-5.5v-14.3h-4.2v-6.4h4.2v-5.8c2.5-0.4,5-0.7,7.4-1v6.8h6.9v6.4h-6.9v12.9
				c0,0.7,0.2,1.3,0.7,1.7c0.4,0.4,1.1,0.6,1.9,0.6c1,0,2.1-0.2,3.4-0.7l1.6,5.6c-2.3,1.1-4.6,1.6-7,1.6
				C595.5,174.4,593.6,173.7,592.2,172.4z"/>
			<path class="st5" d="M611.6,170.6c-2.5-2.5-3.8-6.1-3.8-10.6c0-2.9,0.5-5.5,1.6-7.7c1.1-2.2,2.6-3.8,4.6-5s4.3-1.7,7-1.7
				c4,0,7,1.3,9.1,3.8c2.1,2.5,3.2,6.2,3.2,11c0,0.8,0,1.4-0.1,1.8h-18c0.4,1.9,1.2,3.3,2.4,4.3c1.3,1,3,1.5,5.1,1.5
				c1.3,0,2.7-0.2,4.1-0.5c1.4-0.3,2.7-0.8,3.7-1.4l1.2,6c-1.4,0.7-3,1.3-4.7,1.7c-1.7,0.4-3.5,0.6-5.2,0.6
				C617.6,174.4,614.1,173.1,611.6,170.6z M626.2,156.6c-0.1-1.5-0.6-2.7-1.6-3.6s-2.2-1.4-3.8-1.4c-1.5,0-2.8,0.4-3.7,1.3
				c-1,0.9-1.6,2.1-1.8,3.7H626.2z"/>
			<path class="st5" d="M650.9,153.2h25.4l-0.5,4h-25.4L650.9,153.2z M650.9,162.2h25.4l-0.5,4h-25.4L650.9,162.2z"/>
			<path class="st0" d="M698.1,169.7c-3.2-3-4.8-7.3-4.8-12.9c0-3.8,0.8-7.1,2.3-10c1.5-2.9,3.6-5.1,6.4-6.7
				c2.8-1.6,5.9-2.4,9.5-2.4c2.9,0,5.8,0.5,8.5,1.6l-1.4,6.8c-2.4-1.1-4.7-1.6-7-1.6c-3.2,0-5.8,1.1-7.6,3.2
				c-1.9,2.1-2.8,4.9-2.8,8.4c0,3.6,1,6.3,3,8.3c2,2,4.7,3,8.2,3c2.3,0,4.5-0.4,6.7-1.1l1.2,6.5c-2.6,1-5.5,1.5-8.8,1.5
				C705.7,174.3,701.3,172.7,698.1,169.7z"/>
			<path class="st0" d="M726.6,170.8c-1.7-2.4-2.5-5.7-2.5-9.8c0-5,1.3-8.8,3.8-11.5c2.5-2.6,6.2-3.9,11-3.9c2.7,0,5.8,0.4,9.4,1.3
				v26.8h-7.1l0.2-4.3h-0.2c-0.9,1.7-2,2.9-3.4,3.8c-1.3,0.9-2.8,1.3-4.5,1.3C730.5,174.4,728.3,173.2,726.6,170.8z M738.2,166.1
				c1.1-1.2,2-2.7,3-4.7v-8.9c-1.1-0.3-2.3-0.5-3.4-0.5c-2.1,0-3.7,0.7-4.8,2.2c-1.1,1.4-1.6,3.6-1.6,6.4c0,2.2,0.3,4,1,5.3
				c0.6,1.3,1.5,1.9,2.6,1.9C736,167.9,737.1,167.3,738.2,166.1z"/>
			<path class="st0" d="M755.6,146.3h7.3v4.2c2.2-3.3,5.1-5,8.7-5c2.1,0,3.9,0.5,5.3,1.5c1.5,1,2.5,2.4,3.2,4.2
				c1.2-1.9,2.6-3.4,4.2-4.3s3.3-1.4,5.3-1.4c2.9,0,5.2,0.9,6.9,2.6c1.6,1.7,2.5,4.2,2.5,7.3v18.1h-7.5v-17c0-1.4-0.3-2.5-1-3.3
				c-0.7-0.8-1.6-1.2-2.8-1.2c-1.4,0-2.8,0.6-4,1.8c-1.2,1.2-2.2,2.7-2.8,4.6v15.1h-7.5v-17c0-1.4-0.4-2.5-1.1-3.3
				c-0.7-0.8-1.6-1.2-2.8-1.2c-1.3,0-2.5,0.5-3.7,1.5c-1.1,1-2.1,2.3-2.8,4.1v15.9h-7.5V146.3z"/>
			<path class="st0" d="M804.6,167.2h5.1v-14.5h-5.1v-6.4h12.6v20.9h4.6v6.4h-17.1V167.2z M808.8,134.9h8.5v6.9h-8.5V134.9z"/>
			<path class="st0" d="M826.7,146.3h7.3v4.7c1.1-1.9,2.4-3.3,3.9-4.1c1.5-0.9,3.2-1.3,5.2-1.3c2.9,0,5.2,0.9,6.9,2.6
				s2.5,4.2,2.5,7.3v18.1H845v-17c0-1.4-0.4-2.5-1.1-3.3s-1.7-1.2-2.9-1.2c-1.4,0-2.8,0.5-4,1.6s-2.2,2.4-2.9,4v15.8h-7.5V146.3z"/>
			<path class="st0" d="M862.7,172.4c-1.4-1.3-2.1-3.1-2.1-5.5v-14.3h-4.2v-6.4h4.2v-5.8c2.5-0.4,5-0.7,7.4-1v6.8h6.9v6.4H868v12.9
				c0,0.7,0.2,1.3,0.7,1.7c0.4,0.4,1.1,0.6,1.9,0.6c1,0,2.1-0.2,3.4-0.7l1.6,5.6c-2.3,1.1-4.6,1.6-7,1.6
				C866,174.4,864.1,173.7,862.7,172.4z"/>
			<path class="st0" d="M882.1,170.6c-2.5-2.5-3.8-6.1-3.8-10.6c0-2.9,0.5-5.5,1.6-7.7c1.1-2.2,2.6-3.8,4.6-5s4.3-1.7,7-1.7
				c4,0,7,1.3,9.1,3.8c2.1,2.5,3.2,6.2,3.2,11c0,0.8,0,1.4-0.1,1.8h-18c0.4,1.9,1.2,3.3,2.4,4.3c1.3,1,3,1.5,5.1,1.5
				c1.3,0,2.7-0.2,4.1-0.5c1.4-0.3,2.7-0.8,3.7-1.4l1.2,6c-1.4,0.7-3,1.3-4.7,1.7c-1.7,0.4-3.5,0.6-5.2,0.6
				C888.1,174.4,884.6,173.1,882.1,170.6z M896.7,156.6c-0.1-1.5-0.6-2.7-1.6-3.6s-2.2-1.4-3.8-1.4c-1.5,0-2.8,0.4-3.7,1.3
				c-1,0.9-1.6,2.1-1.8,3.7H896.7z"/>
		</g>
	</g>
	<g>
		<g>
			<path class="st8" d="M271.1,545.3c-1.3-0.3-2.3-0.7-3.3-1.3l0.4-4.8c1.1,0.7,2.2,1.2,3.4,1.6c1.2,0.4,2.3,0.6,3.3,0.6
				c1.2,0,2.1-0.2,2.8-0.7c0.7-0.5,1.1-1.1,1.1-1.9c0-0.6-0.2-1.1-0.7-1.5c-0.5-0.3-1.2-0.7-2.3-1.1l-0.9-0.4
				c-0.1,0-0.3-0.1-0.4-0.2c-0.1-0.1-0.3-0.1-0.5-0.2c-1.3-0.6-2.4-1.1-3.2-1.6c-0.8-0.5-1.5-1.2-2.1-2.1c-0.6-0.9-0.9-2-0.9-3.5
				c0-2.3,0.8-4.1,2.3-5.4c1.6-1.3,3.7-2,6.5-2c2.1,0,4.3,0.4,6.5,1.3l-0.8,4.8c-0.9-0.5-1.8-0.9-2.9-1.2c-1-0.3-2-0.4-2.9-0.4
				c-1.1,0-2,0.2-2.6,0.7s-0.9,1-0.9,1.8c0,0.6,0.2,1.2,0.6,1.5c0.4,0.4,1.1,0.7,2.1,1.2l1.5,0.6c1.4,0.5,2.5,1,3.5,1.5
				c0.9,0.5,1.7,1.2,2.3,2.2s1,2.2,1,3.7c0,2.3-0.8,4.1-2.4,5.4s-3.8,1.9-6.6,1.9C273.7,545.7,272.4,545.6,271.1,545.3z"/>
			<path class="st8" d="M289.7,543.2c-1.7-1.7-2.6-4.1-2.6-7.2c0-2,0.4-3.7,1.1-5.2c0.7-1.5,1.8-2.6,3.2-3.4
				c1.4-0.8,2.9-1.2,4.8-1.2c2.7,0,4.8,0.9,6.2,2.6c1.4,1.7,2.2,4.2,2.2,7.5c0,0.6,0,1,0,1.2h-12.2c0.2,1.3,0.8,2.2,1.7,2.9
				c0.9,0.7,2,1,3.5,1c0.9,0,1.8-0.1,2.8-0.3c1-0.2,1.8-0.5,2.5-0.9l0.8,4.1c-1,0.5-2,0.9-3.2,1.2c-1.2,0.3-2.3,0.4-3.5,0.4
				C293.8,545.8,291.4,544.9,289.7,543.2z M299.7,533.7c-0.1-1-0.4-1.9-1.1-2.5c-0.6-0.6-1.5-0.9-2.6-0.9c-1,0-1.9,0.3-2.5,0.9
				c-0.7,0.6-1.1,1.4-1.2,2.5H299.7z"/>
			<path class="st8" d="M310,543.4c-1.7-1.6-2.5-3.9-2.5-6.9c0-2,0.4-3.8,1.2-5.3s1.9-2.7,3.3-3.6c1.4-0.9,3.1-1.3,5-1.3
				c0.9,0,1.8,0.1,2.8,0.3c1,0.2,1.7,0.4,2.3,0.7l-1,4.3c-0.6-0.3-1.2-0.5-1.8-0.6c-0.7-0.2-1.3-0.2-1.9-0.2c-1.5,0-2.7,0.5-3.6,1.5
				c-0.9,1-1.3,2.3-1.3,4c0,1.7,0.5,3,1.4,3.9s2.2,1.4,3.9,1.4c1.1,0,2.3-0.2,3.6-0.6l0.8,4.1c-1.6,0.6-3.2,0.9-5,0.9
				C314.1,545.8,311.7,545,310,543.4z"/>
			<path class="st8" d="M327.3,544c-1.1-1.2-1.7-2.8-1.7-4.9v-12.3h5.1v11.5c0,1,0.2,1.7,0.7,2.3s1.1,0.8,1.9,0.8
				c0.8,0,1.6-0.3,2.4-0.8c0.8-0.5,1.4-1.2,1.9-2.1v-11.7h5.1v18.5h-5.1v-2.4c-0.7,0.9-1.5,1.7-2.4,2.2c-0.9,0.5-2,0.8-3.3,0.8
				C330,545.8,328.4,545.2,327.3,544z"/>
			<path class="st8" d="M346.5,540.9h3.3v-17.6h-3.1V519h8.2v21.9h3.3v4.4h-11.6V540.9z"/>
			<path class="st8" d="M361.9,543.4c-1.1-1.6-1.7-3.9-1.7-6.7c0-3.4,0.9-6,2.6-7.8c1.7-1.8,4.2-2.7,7.5-2.7c1.8,0,4,0.3,6.4,0.9
				v18.2h-4.8l0.1-3h-0.1c-0.6,1.1-1.4,2-2.3,2.6c-0.9,0.6-1.9,0.9-3,0.9C364.5,545.8,363,545,361.9,543.4z M369.7,540.2
				c0.7-0.8,1.4-1.8,2-3.2v-6c-0.8-0.2-1.5-0.3-2.3-0.3c-1.4,0-2.5,0.5-3.3,1.5s-1.1,2.4-1.1,4.4c0,1.5,0.2,2.7,0.6,3.6
				c0.4,0.9,1,1.3,1.8,1.3C368.2,541.4,369,541,369.7,540.2z"/>
			<path class="st8" d="M381.6,526.7h5.1v3h0.3c0.7-1.2,1.4-2.1,2.1-2.7c0.7-0.6,1.5-0.9,2.6-0.9c0.4,0,0.8,0,1.1,0.1l-0.5,5.5
				c-0.6-0.2-1.1-0.3-1.5-0.3c-0.6,0-1,0.1-1.5,0.3s-0.8,0.5-1.1,0.9c-0.3,0.4-0.8,0.9-1.4,1.7v10.9h-5.1V526.7z"/>
			<path class="st8" d="M407.8,544.2c-1.8-1-3.2-2.5-4.2-4.4c-1-1.9-1.5-4-1.5-6.4c0-2.4,0.5-4.6,1.5-6.5s2.4-3.3,4.2-4.4
				c1.8-1,3.9-1.5,6.3-1.5c2.4,0,4.4,0.5,6.2,1.5c1.8,1,3.2,2.5,4.2,4.3c1,1.8,1.5,4,1.5,6.4c0,2.5-0.5,4.6-1.5,6.5
				c-1,1.9-2.4,3.3-4.2,4.4s-3.9,1.6-6.2,1.6C411.7,545.7,409.6,545.2,407.8,544.2z M418.8,539c1.2-1.4,1.8-3.3,1.8-5.7
				c0-1.5-0.3-2.9-0.8-4.1c-0.5-1.2-1.3-2.1-2.3-2.7c-1-0.6-2.1-1-3.4-1c-1.3,0-2.4,0.3-3.4,1c-1,0.6-1.8,1.5-2.3,2.7
				c-0.5,1.2-0.8,2.6-0.8,4.1c0,1.5,0.3,2.9,0.8,4.1s1.3,2.1,2.3,2.7c1,0.6,2.1,1,3.4,1C416,541.2,417.6,540.4,418.8,539z"/>
			<path class="st8" d="M429.7,526.7h5v3.2c0.8-1.3,1.7-2.2,2.7-2.8c1-0.6,2.2-0.9,3.5-0.9c2,0,3.6,0.6,4.7,1.8
				c1.1,1.2,1.7,2.8,1.7,5v12.3h-5.1v-11.5c0-1-0.2-1.7-0.7-2.3c-0.5-0.5-1.1-0.8-1.9-0.8c-1,0-1.9,0.4-2.7,1.1
				c-0.9,0.7-1.5,1.6-2,2.7v10.8h-5.1V526.7z"/>
			<path class="st8" d="M453.6,543.2c-1.7-1.7-2.6-4.1-2.6-7.2c0-2,0.4-3.7,1.1-5.2c0.7-1.5,1.8-2.6,3.2-3.4
				c1.4-0.8,2.9-1.2,4.8-1.2c2.7,0,4.8,0.9,6.2,2.6c1.4,1.7,2.2,4.2,2.2,7.5c0,0.6,0,1,0,1.2h-12.2c0.2,1.3,0.8,2.2,1.7,2.9
				c0.9,0.7,2,1,3.5,1c0.9,0,1.8-0.1,2.8-0.3c1-0.2,1.8-0.5,2.5-0.9l0.8,4.1c-1,0.5-2,0.9-3.2,1.2c-1.2,0.3-2.3,0.4-3.5,0.4
				C457.7,545.8,455.3,544.9,453.6,543.2z M463.6,533.7c-0.1-1-0.4-1.9-1.1-2.5c-0.6-0.6-1.5-0.9-2.6-0.9c-1,0-1.9,0.3-2.5,0.9
				c-0.7,0.6-1.1,1.4-1.2,2.5H463.6z"/>
			<path class="st8" d="M479.4,521.3c0.7,0,2.1,0,4,0c2,0,3.3,0,4.1,0c2.7,0.1,4.8,0.8,6.1,2c1.3,1.2,2,2.9,2,5
				c0,1.8-0.5,3.3-1.3,4.5c-0.9,1.2-2.2,2-3.8,2.4c0.5,0.4,1,1,1.5,1.7c0.5,0.7,1.3,1.8,2.2,3.3c1,1.6,2,3.3,3,5.1h-6l-4.1-7.6
				c-0.4-0.8-0.8-1.3-1.2-1.5c-0.3-0.2-0.9-0.3-1.6-0.3v9.4h-5V521.3z M486.7,531.9c1.2,0,2.2-0.3,2.9-0.9c0.7-0.6,1.1-1.5,1.1-2.5
				c0-1-0.3-1.7-0.9-2.2c-0.6-0.5-1.5-0.8-2.7-0.8h-2.5v6.4H486.7z"/>
			<path class="st8" d="M501.2,543.2c-1.7-1.7-2.6-4.1-2.6-7.2c0-2,0.4-3.7,1.1-5.2c0.7-1.5,1.8-2.6,3.1-3.4
				c1.4-0.8,2.9-1.2,4.8-1.2c2.7,0,4.8,0.9,6.2,2.6c1.4,1.7,2.2,4.2,2.2,7.5c0,0.6,0,1,0,1.2h-12.2c0.2,1.3,0.8,2.2,1.7,2.9
				c0.9,0.7,2,1,3.5,1c0.9,0,1.8-0.1,2.8-0.3c1-0.2,1.8-0.5,2.5-0.9l0.8,4.1c-1,0.5-2,0.9-3.2,1.2c-1.2,0.3-2.3,0.4-3.5,0.4
				C505.3,545.8,502.9,544.9,501.2,543.2z M511.2,533.7c-0.1-1-0.4-1.9-1.1-2.5c-0.6-0.6-1.5-0.9-2.6-0.9c-1,0-1.9,0.3-2.5,0.9
				c-0.7,0.6-1.1,1.4-1.2,2.5H511.2z"/>
			<path class="st8" d="M519.7,552.6l1-4.5c2.3,0.7,4.2,1,5.8,1c1.2,0,2.2-0.2,2.8-0.6c0.7-0.4,1.1-1,1.4-1.8
				c0.3-0.8,0.4-1.9,0.5-3.3h-0.1c-0.7,0.8-1.5,1.4-2.3,1.8c-0.9,0.4-1.9,0.6-2.9,0.6c-2.1,0-3.8-0.8-4.9-2.4
				c-1.2-1.6-1.8-3.8-1.8-6.6c0-3.4,0.9-6,2.6-7.8c1.8-1.8,4.3-2.7,7.6-2.7c1.9,0,4.2,0.3,6.8,0.9c0,4.9,0.1,8.7,0.1,11.2
				c0,2.2,0,3.9,0,5c0,3.4-0.9,6-2.6,7.6c-1.7,1.7-4.2,2.5-7.5,2.5C523.9,553.4,521.8,553.2,519.7,552.6z M529.3,540.5
				c0.7-0.6,1.3-1.3,1.8-2.3l0-7.2c-0.8-0.2-1.6-0.3-2.3-0.3c-1.5,0-2.7,0.5-3.4,1.5c-0.8,1-1.2,2.4-1.2,4.3c0,1.6,0.3,2.8,0.8,3.7
				c0.5,0.9,1.3,1.3,2.2,1.3C527.9,541.4,528.6,541.1,529.3,540.5z"/>
			<path class="st8" d="M542.5,544c-1.1-1.2-1.7-2.8-1.7-4.9v-12.3h5.1v11.5c0,1,0.2,1.7,0.7,2.3s1.1,0.8,1.9,0.8
				c0.8,0,1.6-0.3,2.4-0.8c0.8-0.5,1.4-1.2,1.9-2.1v-11.7h5.1v18.5h-5.1v-2.4c-0.7,0.9-1.5,1.7-2.4,2.2c-0.9,0.5-2,0.8-3.3,0.8
				C545.1,545.8,543.6,545.2,542.5,544z"/>
			<path class="st8" d="M561.7,540.9h3.3v-17.6h-3.1V519h8.2v21.9h3.3v4.4h-11.6V540.9z"/>
			<path class="st8" d="M577,543.4c-1.1-1.6-1.7-3.9-1.7-6.7c0-3.4,0.9-6,2.6-7.8s4.2-2.7,7.5-2.7c1.8,0,4,0.3,6.4,0.9v18.2H587
				l0.1-3h-0.1c-0.6,1.1-1.4,2-2.3,2.6s-1.9,0.9-3,0.9C579.7,545.8,578.1,545,577,543.4z M584.9,540.2c0.7-0.8,1.4-1.8,2-3.2v-6
				c-0.8-0.2-1.5-0.3-2.3-0.3c-1.4,0-2.5,0.5-3.3,1.5c-0.7,1-1.1,2.4-1.1,4.4c0,1.5,0.2,2.7,0.6,3.6c0.4,0.9,1,1.3,1.8,1.3
				C583.4,541.4,584.1,541,584.9,540.2z"/>
			<path class="st8" d="M596.7,526.7h5.1v3h0.3c0.7-1.2,1.4-2.1,2.1-2.7c0.7-0.6,1.5-0.9,2.6-0.9c0.4,0,0.8,0,1.1,0.1l-0.5,5.5
				c-0.6-0.2-1.1-0.3-1.5-0.3c-0.6,0-1,0.1-1.5,0.3c-0.4,0.2-0.8,0.5-1.1,0.9c-0.3,0.4-0.8,0.9-1.4,1.7v10.9h-5.1V526.7z"/>
		</g>
	</g>
	<g>
		<g>
			<path class="st9" d="M131.8,420.3c-12.4-11.9-18.6-28.6-18.6-50.3c0-14.8,2.9-27.8,8.8-39.1c5.9-11.3,14.2-20.1,25-26.2
				c10.8-6.1,23.2-9.2,37.3-9.2c11.5,0,22.5,2.1,33.1,6.2l-5.6,26.7c-9.4-4.3-18.5-6.4-27.3-6.4c-12.6,0-22.5,4.1-29.8,12.3
				c-7.3,8.2-11,19.2-11,32.8c0,13.9,3.9,24.8,11.6,32.5c7.7,7.7,18.4,11.6,32.1,11.6c9,0,17.7-1.4,26.1-4.3l4.6,25.5
				c-10.1,3.9-21.5,5.8-34.4,5.8C161.5,438.1,144.2,432.2,131.8,420.3z"/>
			<path class="st9" d="M232.8,424.5c-6.5-9.4-9.7-22.2-9.7-38.3c0-19.6,5-34.5,14.9-44.8c9.9-10.3,24.2-15.4,42.9-15.4
				c10.5,0,22.8,1.7,36.9,5v104.6H290l0.6-17h-0.8c-3.6,6.5-8,11.5-13.1,14.9c-5.2,3.4-11,5.2-17.5,5.2
				C248.1,438.5,239.3,433.8,232.8,424.5z M278,406.2c4.1-4.6,8-10.6,11.6-18.2v-34.8c-4.4-1.2-8.8-1.9-13.3-1.9
				c-8.3,0-14.5,2.8-18.7,8.5c-4.2,5.7-6.3,14-6.3,25.1c0,8.7,1.2,15.6,3.7,20.6c2.5,5,5.9,7.6,10.4,7.6
				C269.6,413.1,273.8,410.8,278,406.2z"/>
			<path class="st9" d="M335.8,328.8h28.6v16.6c8.4-13,19.8-19.5,34.2-19.5c8.1,0,15.1,1.9,20.8,5.7c5.7,3.8,9.9,9.2,12.5,16.3
				c4.8-7.6,10.2-13.1,16.3-16.7c6-3.5,12.9-5.3,20.6-5.3c11.5,0,20.4,3.4,26.8,10.3c6.4,6.8,9.6,16.3,9.6,28.5v70.8h-29.2v-66.3
				c0-5.5-1.3-9.8-4-12.9c-2.7-3.1-6.3-4.7-10.9-4.7c-5.7,0-10.9,2.3-15.7,7c-4.8,4.7-8.4,10.7-10.8,18v58.8h-29.2v-66.3
				c0-5.4-1.4-9.7-4.1-12.8c-2.8-3.2-6.4-4.8-11-4.8c-5.1,0-9.9,1.9-14.4,5.7c-4.5,3.8-8.1,9.1-10.9,16v62.1h-29.2V328.8z"/>
			<path class="st9" d="M516.9,410.4h19.9v-56.5h-19.9v-25.1H566v81.6h17.8v25.1h-66.9V410.4z M533.1,284.3h33.3v26.9h-33.3V284.3z"
				/>
			<path class="st9" d="M592.7,328.8h28.6v18.4c4.4-7.3,9.5-12.7,15.3-16.2c5.8-3.4,12.6-5.2,20.3-5.2c11.5,0,20.4,3.4,26.9,10.3
				c6.5,6.8,9.7,16.3,9.7,28.5v70.8h-29.2v-66.3c0-5.5-1.4-9.8-4.1-12.9c-2.8-3.1-6.5-4.7-11.2-4.7c-5.5,0-10.8,2.1-15.7,6.2
				c-5,4.1-8.8,9.4-11.4,15.7v61.9h-29.2V328.8z"/>
			<path class="st9" d="M723.1,431c-5.5-5-8.2-12.2-8.2-21.4v-55.7h-16.6v-25.1h16.6V306c9.8-1.7,19.5-2.9,29-3.7v26.5h26.9v25.1
				h-26.9v50.3c0,2.9,0.9,5.1,2.6,6.6c1.7,1.5,4.2,2.3,7.4,2.3c3.9,0,8.3-0.9,13.3-2.7l6.4,21.9c-8.8,4.1-17.9,6.2-27.3,6.2
				C736.2,438.5,728.5,436,723.1,431z"/>
			<path class="st9" d="M788.5,423.6c-9.9-9.9-14.8-23.7-14.8-41.4c0-11.5,2.1-21.4,6.4-29.9c4.3-8.5,10.3-15,18.1-19.6
				c7.8-4.6,16.9-6.8,27.4-6.8c15.5,0,27.3,5,35.6,14.9c8.3,9.9,12.4,24.3,12.4,43.1c0,3.2-0.1,5.5-0.2,7h-70.4
				c1.4,7.3,4.6,12.9,9.5,16.7c5,3.8,11.7,5.7,20.1,5.7c5.1,0,10.4-0.7,15.9-2c5.5-1.3,10.4-3.1,14.5-5.3l4.8,23.4
				c-5.5,2.9-11.6,5.1-18.3,6.7c-6.7,1.6-13.5,2.4-20.4,2.4C812,438.5,798.4,433.6,788.5,423.6z M845.8,369
				c-0.4-5.9-2.5-10.7-6.2-14.2c-3.7-3.5-8.7-5.3-14.9-5.3c-5.9,0-10.8,1.7-14.6,5.2c-3.8,3.5-6.2,8.2-7.1,14.3H845.8z"/>
		</g>
	</g>
	<polyline class="st10" points="177.1,455.1 177.1,538.6 251.3,538.6 	"/>
</g>
<g>
	<g>
		<g>
			<path class="st9" d="M1193.5,545.2l-4-22.3c-0.2-1.2-1.4-1.9-2.6-1.6c-8,2.5-16.2,3.8-24.7,3.8c-14.1,0-25.1-4-33.1-11.9
				c-8-8-12-19.1-12-33.5c0-14.1,3.8-25.4,11.3-33.8c7.5-8.5,17.8-12.7,30.7-12.7c8.4,0,17,1.9,25.9,5.6c1.2,0.5,2.5-0.2,2.8-1.5
				l4.9-23.4c0.2-1-0.3-2-1.3-2.3c-10.5-3.9-21.3-5.8-32.5-5.8c-14.5,0-27.3,3.2-38.4,9.5c-11.1,6.3-19.7,15.3-25.7,27
				c-6.1,11.7-9.1,25.1-9.1,40.3c0,22.3,6.4,39.6,19.2,51.8c12.8,12.2,30.6,18.4,53.3,18.4c12.6,0,23.8-1.8,33.8-5.4
				C1193.1,547.2,1193.7,546.2,1193.5,545.2z"/>
			<path class="st9" d="M1295.1,442c-13.8-3.2-26-4.8-36.4-4.8c-19.2,0-33.9,5.3-44.2,15.9c-10.2,10.6-15.4,26-15.4,46.2
				c0,16.6,3.3,29.8,10,39.5c6.7,9.7,15.7,14.5,27.1,14.5c6.7,0,12.7-1.8,18-5.3c5.3-3.6,9.9-8.7,13.6-15.4h0.9l-0.6,15.4
				c0,1.2,0.9,2.1,2,2.1h24.5c1.1,0,2-0.9,2-2V444C1296.7,443,1296,442.2,1295.1,442z M1267.6,500.8c0,0.3-0.1,0.6-0.2,0.9
				c-3.7,7.6-7.6,13.7-11.8,18.4c-4.3,4.7-8.6,7-13,7c-4.6,0-8.1-2.6-10.7-7.8c-2.6-5.2-3.8-12.3-3.8-21.2c0-11.4,2.2-20,6.5-25.8
				c4.3-5.8,10.8-8.8,19.3-8.8c4,0,8.1,0.5,12.1,1.5c0.9,0.2,1.5,1.1,1.5,2V500.8z"/>
			<path class="st9" d="M1479.9,447.8c-6.6-7-15.8-10.6-27.6-10.6c-8,0-15,1.8-21.2,5.4c-5.3,3.1-10.2,7.8-14.7,14.1
				c-0.9,1.3-2.8,1.1-3.5-0.3c-2.7-5.6-6.5-10.1-11.5-13.4c-5.9-3.9-13.1-5.9-21.4-5.9c-12.9,0-23.4,5-31.6,15.1
				c-1.2,1.5-3.6,0.6-3.6-1.3v-8.8c0-1.1-0.9-2-2-2h-25.4c-1.1,0-2,0.9-2,2v105.8c0,1.1,0.9,2,2,2h26c1.1,0,2-0.9,2-2v-61.6
				c0-0.3,0.1-0.5,0.2-0.8c2.8-6.9,6.5-12.3,11-16.1c4.6-3.9,9.6-5.9,14.8-5.9c4.7,0,8.5,1.6,11.3,4.9c2.8,3.3,4.3,7.7,4.3,13.2
				v66.3c0,1.1,0.9,2,2,2h26c1.1,0,2-0.9,2-2v-58.2c0-0.2,0-0.4,0.1-0.7c2.4-7.4,6.1-13.5,11-18.2c5-4.8,10.4-7.3,16.2-7.3
				c4.7,0,8.4,1.6,11.2,4.8c2.8,3.2,4.2,7.6,4.2,13.3v66.3c0,1.1,0.9,2,2,2h26c1.1,0,2-0.9,2-2v-70.9
				C1489.8,464.6,1486.5,454.8,1479.9,447.8z"/>
			<path class="st9" d="M1550.9,394.3h-30.3c-1.1,0-2,0.9-2,2V420c0,1.1,0.9,2,2,2h30.3c1.1,0,2-0.9,2-2v-23.7
				C1552.9,395.2,1552,394.3,1550.9,394.3z M1568.8,524.3h-14.3c-1.1,0-2-0.9-2-2v-80c0-1.1-0.9-2-2-2H1504c-1.1,0-2,0.9-2,2V464
				c0,1.1,0.9,2,2,2h16.4c1.1,0,2,0.9,2,2v54.2c0,1.1-0.9,2-2,2H1504c-1.1,0-2,0.9-2,2v21.8c0,1.1,0.9,2,2,2h64.9c1.1,0,2-0.9,2-2
				v-21.8C1570.9,525.2,1570,524.3,1568.8,524.3z"/>
			<path class="st9" d="M1673.9,447.8c-6.7-7-15.9-10.6-27.7-10.6c-8,0-14.9,1.8-20.9,5.3c-4.4,2.6-8.5,6.4-12.1,11.2
				c-1.2,1.6-3.7,0.7-3.7-1.2v-10.3c0-1.1-0.9-2-2-2h-25.4c-1.1,0-2,0.9-2,2v105.8c0,1.1,0.9,2,2,2h26c1.1,0,2-0.9,2-2v-61.3
				c0-0.3,0.1-0.6,0.2-0.8c2.7-6.4,6.6-11.6,11.6-15.8c5.1-4.3,10.5-6.4,16.2-6.4c4.8,0,8.7,1.6,11.5,4.8c2.8,3.2,4.3,7.6,4.3,13.3
				v66.3c0,1.1,0.9,2,2,2h26c1.1,0,2-0.9,2-2v-70.9C1684,464.6,1680.6,454.8,1673.9,447.8z"/>
			<path class="st9" d="M1765.8,545.2l-5.5-18.9c-0.3-1.1-1.5-1.7-2.6-1.4c-4.3,1.4-8.2,2.1-11.7,2.1c-3.3,0-5.8-0.8-7.6-2.3
				c-1.8-1.6-2.7-3.8-2.7-6.8v-49.8c0-1.1,0.9-2,2-2h23.7c1.1,0,2-0.9,2-2v-21.8c0-1.1-0.9-2-2-2h-23.7c-1.1,0-2-0.9-2-2v-23.1
				c0-1.2-1-2.1-2.2-2c-8.5,0.8-17.2,1.9-25.9,3.4c-1,0.2-1.7,1-1.7,2v19.7c0,1.1-0.9,2-2,2h-13c-1.1,0-2,0.9-2,2V464
				c0,1.1,0.9,2,2,2h13c1.1,0,2,0.9,2,2v55.4c0,9.5,2.8,16.9,8.4,22.1c5.6,5.2,13.6,7.8,23.8,7.8c9.1,0,18-1.9,26.6-5.7
				C1765.6,547.2,1766.1,546.2,1765.8,545.2z"/>
			<path class="st9" d="M1856.8,452.6c-8.5-10.2-20.8-15.4-36.7-15.4c-10.8,0-20.2,2.3-28.3,7c-8,4.7-14.3,11.4-18.7,20.2
				c-4.4,8.8-6.6,19-6.6,30.8c0,18.2,5.1,32.4,15.3,42.7c10.2,10.2,24.1,15.4,41.9,15.4c7.1,0,14.1-0.8,21-2.5
				c6.3-1.5,12.2-3.6,17.5-6.2c0.8-0.4,1.3-1.3,1.1-2.2l-4.1-20c-0.3-1.3-1.7-2-2.8-1.4c-3.7,1.7-7.9,3.2-12.6,4.3
				c-5.7,1.4-11.2,2-16.4,2c-8.7,0-15.6-1.9-20.7-5.9c-4.5-3.5-7.6-8.3-9.3-14.6c-0.3-1.3,0.6-2.5,2-2.5h68.1c1.1,0,2-0.8,2-1.9
				c0.1-1.4,0.1-3.2,0.1-5.3C1869.6,477.6,1865.3,462.8,1856.8,452.6z M1838.5,481.6h-39.4c-1.3,0-2.3-1.2-2-2.5
				c1.2-5.1,3.5-9.2,6.9-12.3c3.9-3.6,8.9-5.3,15-5.3c6.4,0,11.5,1.8,15.4,5.4c3.3,3.2,5.4,7.3,6.1,12.3
				C1840.7,480.5,1839.8,481.6,1838.5,481.6z"/>
		</g>
	</g>
	<g>
		<path class="st9" d="M1427.4,184.2c10.2-0.2,16.1-19.7,15.6-29.2c-0.5-9.2-3.4-27.9-14.7-27.1c-10.6,0.7-15.8,18.8-15.5,28.5
			C1413,165.5,1416.2,184.4,1427.4,184.2z"/>
		<path class="st9" d="M1765.4,119c-5.4-15.9-14.5-28.9-27.3-39c-11.1-8.8-24.2-14.8-39.4-18c-2.4-0.5-4.8-1-7.3-1.4
			c-3.2-0.5-6.4-0.8-9.6-1.1c-10.4-0.8-20.8-0.1-31.1,1.9c6.2,6.2,11.6,14.1,16.2,23.4c9.8,19.9,15,45.4,14.7,71.9
			c-0.3,27.9-6.6,54.3-17.8,74.4c-4,7.2-8.5,13.3-13.4,18.4l42.5-1.7c5.7-0.4,11.1-1.3,16.3-2.6c9.5-2.4,18.1-6.3,25.9-11.7
			c18.5-13,29.9-33.6,34.2-61.8C1772,152.5,1770.8,134.9,1765.4,119z"/>
		<path class="st9" d="M1242.2,241.2c40.9,1,82,2,123.1,3.1c0.2,0,0.5-0.1,0.7-0.1l0.1,0l105.9,2.7c0.3,0,0.5,0,0.8,0.1
			c31.6,0.8,63.1,1.6,94.2,2.5l9.7,0.3l12.4,0.3l21.6,0.6c0.3,0,0.6,0,0.9,0c0.4,0,0.8,0,1.2,0c28.4,0.3,51.8-41.8,52.4-94.1
			c0-0.8,0-1.5,0-2.3c0-0.3,0-0.7,0-1c0-0.2,0-0.4,0-0.6c0-0.2,0-0.4,0-0.6c0-0.3,0-0.7,0-1c0-0.6,0-1.2,0-1.8c0-0.1,0-0.2,0-0.4
			c0-0.4,0-0.7,0-1.1c0-0.7-0.1-1.4-0.1-2.1c0-0.4,0-0.8-0.1-1.2c0-0.5-0.1-0.9-0.1-1.4c-0.1-1.3-0.2-2.5-0.3-3.8
			c-0.1-1.4-0.3-2.8-0.4-4.2c-0.1-0.5-0.1-0.9-0.2-1.4c-0.1-0.9-0.2-1.8-0.4-2.7c-0.2-1.4-0.4-2.7-0.6-4c-0.1-0.7-0.2-1.3-0.3-2
			c-0.1-0.4-0.2-0.8-0.2-1.3c-0.1-0.4-0.2-0.9-0.3-1.3c-0.1-0.4-0.2-0.9-0.3-1.3c-0.1-0.5-0.2-1-0.3-1.5c-0.2-0.8-0.3-1.6-0.5-2.4
			c-0.1-0.6-0.3-1.2-0.5-1.9c-0.2-0.6-0.3-1.2-0.5-1.9c-0.2-0.6-0.3-1.2-0.5-1.8c-0.4-1.4-0.8-2.7-1.2-4c-0.1-0.4-0.3-0.8-0.4-1.2
			c0-0.1,0-0.1,0-0.2c-0.1-0.3-0.2-0.6-0.3-0.9c-0.1-0.3-0.2-0.6-0.3-1c-0.2-0.5-0.4-1-0.6-1.6c-0.2-0.6-0.4-1.1-0.6-1.7
			c-0.2-0.5-0.4-1.1-0.6-1.7c-0.2-0.5-0.4-1-0.6-1.5c0-0.1,0-0.1-0.1-0.2c-0.2-0.5-0.5-1.1-0.7-1.6c-0.2-0.5-0.5-1.1-0.7-1.6
			c-0.2-0.5-0.5-1-0.7-1.5c-0.2-0.5-0.5-1-0.7-1.5c-0.6-1.1-1.1-2.2-1.7-3.3c-0.1-0.2-0.3-0.5-0.4-0.7c-0.1-0.1-0.1-0.2-0.2-0.3
			c-0.3-0.5-0.5-0.9-0.8-1.4c-0.5-0.8-0.9-1.6-1.4-2.3c-0.1-0.1-0.2-0.3-0.2-0.4c-0.8-1.3-1.7-2.6-2.6-3.8c-0.3-0.4-0.6-0.8-0.9-1.2
			c0,0,0,0,0,0c-6-7.8-13-13.3-20.7-15.6c-0.5-0.2-1-0.3-1.5-0.5c-0.3-0.1-0.5-0.1-0.8-0.2c-0.1,0-0.2,0-0.3-0.1
			c-0.2-0.1-0.4-0.1-0.7-0.1c-0.4-0.1-0.7-0.1-1-0.2l0,0c-0.3,0-0.6-0.1-1-0.1c-0.5-0.1-1.1-0.1-1.6-0.1c-0.2,0-0.5,0-0.7,0
			c-0.1,0-0.3,0-0.4,0c-0.1,0-0.3,0-0.4,0c0,0,0,0,0,0c-0.9,0-1.7,0-2.6,0.1l-0.3,0c-7.7,0.6-15.4,1.2-23.2,1.8
			c-4.2,0.3-8.3,0.6-12.5,1c-40.5,3.1-82.6,6.4-125.7,9.7l-0.4-4.6l-0.2-2.2c-0.1-0.8-0.3-1.6-0.6-2.3l0,0c-0.1-0.2-0.2-0.4-0.3-0.6
			c-0.9-1.7-2.4-3-4.3-3.7c-1-0.4-2-0.5-3.1-0.4l-35.2,2.7c-1.1,0.1-2.2,0.4-3.1,0.9c-0.5,0.2-0.9,0.5-1.3,0.9c0,0,0,0,0,0
			c-1.2,1-2.1,2.5-2.5,4.1c-0.2,0.8-0.3,1.5-0.2,2.4l0.2,2.3l0.4,4.6c-51.6,4.1-104.1,8.2-156.3,12.5c-31.5,2.8-43.3,48.6-43.3,76.8
			c0.2,3.8,1.3,22.5,7.3,40.4C1215.2,229.4,1226.8,240.7,1242.2,241.2z M1610.8,115c0.2,0,0.4,0,0.6,0c2,0,3.8,0.7,5.6,2.3
			c6.7,6.1,9.1,22.1,9.4,29.8c0.3,7.6-2.7,24.8-9.7,32.1c-2,2-4.1,3.1-6.3,3.1c-2.3,0-4.5-1-6.4-3c-6.4-6.5-9.2-21.9-9.1-30.8
			C1594.8,138.3,1598.9,115.8,1610.8,115z M1512.5,120.9c2.4-0.2,4.5,0.7,6.5,2.5c6.1,5.7,8.7,20,8.7,27.8c-0.1,5.2-1.3,13.6-4,20.6
			c-2.2,5.6-6,12.4-12.1,12.5c-2.3,0-4.5-0.9-6.5-2.9c-6.1-6.1-8.8-20.8-8.7-28.7C1496.5,143.1,1500.7,121.7,1512.5,120.9z
			 M1392.7,157.2c0.3-17.5,7.4-63.5,36.3-65.7c0.7-0.1,1.3-0.1,1.9-0.1c5.7,0,10.8,2.1,15.1,6.1c13.8,12.9,17.2,42.6,17,56.4
			c-0.3,23-9.5,70.3-36.1,70.3l-0.2,0c-6.2,0-11.8-2.6-16.5-7.4C1396.9,203.2,1392.5,173.7,1392.7,157.2z M1242.3,137.7
			c2.4-0.2,4.7,0.7,6.7,2.7c5.2,4.9,8.3,15.7,8.2,22.9c-0.1,9.4-5.5,27.2-15.5,27.4c-2.6,0.1-5-1-7.1-3.1
			c-5.2-5.1-7.9-15.5-7.9-22.7C1226.9,154,1232.3,138.5,1242.3,137.7z"/>
		<path class="st9" d="M1739.8,325.4l-249-16.8l0.6-44.9c-29.1-0.8-58.3-1.5-87.5-2.3l-0.6,41.2l-166.1-11.2c-0.6,0-1.4-0.1-2-0.1
			c-16,0-29,13.1-28.9,29.1c0,16,13.1,29,29.1,28.9l244.5-0.6l2.5,0.2c0.9,0.1,1.8,0,2.7-0.2l254.1-0.6c5.9,0,11-4.6,11.4-10.6
			C1750.8,331.3,1746.1,325.8,1739.8,325.4z"/>
	</g>
</g>
<g>
	<path class="st9" d="M1598.4,70.7c-0.1,0-0.2,0-0.2,0c0.1,0,0.3,0,0.4-0.1C1598.5,70.7,1598.4,70.7,1598.4,70.7z"/>
	<path class="st4" d="M1637.2,91.9c0.1,0.1,0.2,0.2,0.3,0.3c0.1,0.1,0.2,0.2,0.2,0.3C1637.5,92.3,1637.4,92.1,1637.2,91.9z"/>
</g>
</svg>
