<?xml version="1.0" encoding="utf-8"?>
<!-- Generator: Adobe Illustrator 25.0.1, SVG Export Plug-In . SVG Version: 6.00 Build 0)  -->
<svg version="1.1" id="Layer_1" xmlns="http://www.w3.org/2000/svg" xmlns:xlink="http://www.w3.org/1999/xlink" x="0px" y="0px"
	 viewBox="0 0 1000 633.4" style="enable-background:new 0 0 1000 633.4;" xml:space="preserve">
<style type="text/css">
	.st0{fill:#001911;}
	.st1{fill:#3E9278;}
	.st2{fill:#74BAA0;}
	.st3{fill:#216651;}
	.st4{fill:#CCD9CE;}
	.st5{fill:#FFFFFF;}
	.st6{fill:#06261B;}
	.st7{fill:#C6DBCE;}
	.st8{fill:#5BBD9C;}
	.st9{fill:#009576;}
	.st10{fill:none;stroke:#5BBD9C;stroke-miterlimit:10;}
	.st11{fill:none;stroke:#000000;stroke-width:2.4705;stroke-miterlimit:10;}
	.st12{fill:none;stroke:#74BAA0;stroke-miterlimit:10;}
	.st13{clip-path:url(#SVGID_2_);}
	.st14{opacity:0.75;fill:url(#);}
	.st15{clip-path:url(#SVGID_3_);}
	.st16{opacity:0.6;fill:url(#);}
</style>
<g>
	<g>
		<g>
			<path class="st9" d="M227.5,545.6l-4-22.3c-0.2-1.2-1.4-1.9-2.6-1.6c-8,2.5-16.2,3.8-24.7,3.8c-14.1,0-25.1-4-33.1-11.9
				c-8-8-12-19.1-12-33.5c0-14.1,3.8-25.4,11.3-33.8c7.5-8.5,17.8-12.7,30.7-12.7c8.4,0,17,1.9,25.9,5.6c1.2,0.5,2.5-0.2,2.8-1.5
				l4.9-23.4c0.2-1-0.3-2-1.3-2.3c-10.5-3.9-21.3-5.8-32.5-5.8c-14.5,0-27.3,3.2-38.4,9.5c-11.1,6.3-19.7,15.3-25.7,27
				c-6.1,11.7-9.1,25.1-9.1,40.3c0,22.3,6.4,39.6,19.2,51.8c12.8,12.2,30.6,18.4,53.3,18.4c12.6,0,23.8-1.8,33.8-5.4
				C227.1,547.6,227.7,546.6,227.5,545.6z"/>
			<path class="st9" d="M329.1,442.4c-13.8-3.2-26-4.8-36.4-4.8c-19.2,0-33.9,5.3-44.2,15.9c-10.2,10.6-15.4,26-15.4,46.2
				c0,16.6,3.3,29.8,10,39.5c6.7,9.7,15.7,14.5,27.1,14.5c6.7,0,12.7-1.8,18-5.3c5.3-3.6,9.9-8.7,13.6-15.4h0.9l-0.6,15.4
				c0,1.2,0.9,2.1,2,2.1h24.5c1.1,0,2-0.9,2-2V444.4C330.6,443.4,330,442.6,329.1,442.4z M301.6,501.2c0,0.3-0.1,0.6-0.2,0.9
				c-3.7,7.6-7.6,13.7-11.8,18.4c-4.3,4.7-8.6,7-13,7c-4.6,0-8.1-2.6-10.7-7.8c-2.6-5.2-3.8-12.3-3.8-21.2c0-11.4,2.2-20,6.5-25.8
				c4.3-5.8,10.8-8.8,19.3-8.8c4,0,8.1,0.5,12.1,1.5c0.9,0.2,1.5,1.1,1.5,2V501.2z"/>
			<path class="st9" d="M513.8,448.2c-6.6-7-15.8-10.6-27.6-10.6c-8,0-15,1.8-21.2,5.4c-5.3,3.1-10.2,7.8-14.7,14.1
				c-0.9,1.3-2.8,1.1-3.5-0.3c-2.7-5.6-6.5-10.1-11.5-13.4c-5.9-3.9-13.1-5.9-21.4-5.9c-12.9,0-23.4,5-31.6,15.1
				c-1.2,1.5-3.6,0.6-3.6-1.3v-8.8c0-1.1-0.9-2-2-2h-25.4c-1.1,0-2,0.9-2,2v105.8c0,1.1,0.9,2,2,2h26c1.1,0,2-0.9,2-2v-61.6
				c0-0.3,0.1-0.5,0.2-0.8c2.8-6.9,6.5-12.3,11-16.1c4.6-3.9,9.6-5.9,14.8-5.9c4.7,0,8.5,1.6,11.3,4.9c2.8,3.3,4.3,7.7,4.3,13.2
				v66.3c0,1.1,0.9,2,2,2h26c1.1,0,2-0.9,2-2v-58.2c0-0.2,0-0.4,0.1-0.7c2.4-7.4,6.1-13.5,11-18.2c5-4.8,10.4-7.3,16.2-7.3
				c4.7,0,8.4,1.6,11.2,4.8c2.8,3.2,4.2,7.6,4.2,13.3v66.3c0,1.1,0.9,2,2,2h26c1.1,0,2-0.9,2-2v-70.9
				C523.8,465,520.4,455.2,513.8,448.2z"/>
			<path class="st9" d="M584.9,394.7h-30.3c-1.1,0-2,0.9-2,2v23.7c0,1.1,0.9,2,2,2h30.3c1.1,0,2-0.9,2-2v-23.7
				C586.9,395.7,586,394.7,584.9,394.7z M602.8,524.7h-14.3c-1.1,0-2-0.9-2-2v-80c0-1.1-0.9-2-2-2h-46.5c-1.1,0-2,0.9-2,2v21.8
				c0,1.1,0.9,2,2,2h16.4c1.1,0,2,0.9,2,2v54.2c0,1.1-0.9,2-2,2h-16.4c-1.1,0-2,0.9-2,2v21.8c0,1.1,0.9,2,2,2h64.9c1.1,0,2-0.9,2-2
				v-21.8C604.8,525.6,603.9,524.7,602.8,524.7z"/>
			<path class="st9" d="M707.9,448.2c-6.7-7-15.9-10.6-27.7-10.6c-8,0-14.9,1.8-20.9,5.3c-4.4,2.6-8.5,6.4-12.1,11.2
				c-1.2,1.6-3.7,0.7-3.7-1.2v-10.3c0-1.1-0.9-2-2-2H616c-1.1,0-2,0.9-2,2v105.8c0,1.1,0.9,2,2,2h26c1.1,0,2-0.9,2-2v-61.3
				c0-0.3,0.1-0.6,0.2-0.8c2.7-6.4,6.6-11.6,11.6-15.8c5.1-4.3,10.5-6.4,16.2-6.4c4.8,0,8.7,1.6,11.5,4.8c2.8,3.2,4.3,7.6,4.3,13.3
				v66.3c0,1.1,0.9,2,2,2h26c1.1,0,2-0.9,2-2v-70.9C717.9,465,714.6,455.2,707.9,448.2z"/>
			<path class="st9" d="M799.8,545.6l-5.5-18.9c-0.3-1.1-1.5-1.7-2.6-1.4c-4.3,1.4-8.2,2.1-11.7,2.1c-3.3,0-5.8-0.8-7.6-2.3
				c-1.8-1.6-2.7-3.8-2.7-6.8v-49.8c0-1.1,0.9-2,2-2h23.7c1.1,0,2-0.9,2-2v-21.8c0-1.1-0.9-2-2-2h-23.7c-1.1,0-2-0.9-2-2v-23.1
				c0-1.2-1-2.1-2.2-2c-8.5,0.8-17.2,1.9-25.9,3.4c-1,0.2-1.7,1-1.7,2v19.7c0,1.1-0.9,2-2,2h-13c-1.1,0-2,0.9-2,2v21.8
				c0,1.1,0.9,2,2,2h13c1.1,0,2,0.9,2,2v55.4c0,9.5,2.8,16.9,8.4,22.1c5.6,5.2,13.6,7.8,23.8,7.8c9.1,0,18-1.9,26.6-5.7
				C799.6,547.6,800.1,546.6,799.8,545.6z"/>
			<path class="st9" d="M890.8,453c-8.5-10.2-20.8-15.4-36.7-15.4c-10.8,0-20.2,2.3-28.3,7c-8,4.7-14.3,11.4-18.7,20.2
				c-4.4,8.8-6.6,19-6.6,30.8c0,18.2,5.1,32.4,15.3,42.7c10.2,10.2,24.1,15.4,41.9,15.4c7.1,0,14.1-0.8,21-2.5
				c6.3-1.5,12.2-3.6,17.5-6.2c0.8-0.4,1.3-1.3,1.1-2.2l-4.1-20c-0.3-1.3-1.7-2-2.8-1.4c-3.7,1.7-7.9,3.2-12.6,4.3
				c-5.7,1.4-11.2,2-16.4,2c-8.7,0-15.6-1.9-20.7-5.9c-4.5-3.5-7.6-8.3-9.3-14.6c-0.3-1.3,0.6-2.5,2-2.5h68.1c1.1,0,2-0.8,2-1.9
				c0.1-1.4,0.1-3.2,0.1-5.3C903.6,478,899.3,463.2,890.8,453z M872.5,482h-39.4c-1.3,0-2.3-1.2-2-2.5c1.2-5.1,3.5-9.2,6.9-12.3
				c3.9-3.6,8.9-5.3,15-5.3c6.4,0,11.5,1.8,15.4,5.4c3.3,3.2,5.4,7.3,6.1,12.3C874.7,480.9,873.7,482,872.5,482z"/>
		</g>
	</g>
	<g>
		<path class="st9" d="M461.4,184.6c10.2-0.2,16.1-19.7,15.6-29.2c-0.5-9.2-3.4-27.9-14.7-27.1c-10.6,0.7-15.8,18.8-15.5,28.5
			C447,165.9,450.2,184.8,461.4,184.6z"/>
		<path class="st9" d="M799.3,119.4c-5.4-15.9-14.5-28.9-27.3-39c-11.1-8.8-24.2-14.8-39.4-18c-2.4-0.5-4.8-1-7.3-1.4
			c-3.2-0.5-6.4-0.8-9.6-1.1c-10.4-0.8-20.8-0.1-31.1,1.9c6.2,6.2,11.6,14.1,16.2,23.4c9.8,19.9,15,45.4,14.7,71.9
			c-0.3,27.9-6.6,54.3-17.8,74.4c-4,7.2-8.5,13.3-13.4,18.4l42.5-1.7c5.7-0.4,11.1-1.3,16.3-2.6c9.5-2.4,18.1-6.3,25.9-11.7
			c18.5-13,29.9-33.6,34.2-61.8C806,152.9,804.7,135.3,799.3,119.4z"/>
		<path class="st9" d="M276.2,241.7c40.9,1,82,2,123.1,3.1c0.2,0,0.5-0.1,0.7-0.1l0.1,0l105.9,2.7c0.3,0,0.5,0,0.8,0.1
			c31.6,0.8,63.1,1.6,94.2,2.5l9.7,0.3l12.4,0.3l21.6,0.6c0.3,0,0.6,0,0.9,0c0.4,0,0.8,0,1.2,0c28.4,0.3,51.8-41.8,52.4-94.1
			c0-0.8,0-1.5,0-2.3c0-0.3,0-0.7,0-1c0-0.2,0-0.4,0-0.6c0-0.2,0-0.4,0-0.6c0-0.3,0-0.7,0-1c0-0.6,0-1.2,0-1.8c0-0.1,0-0.2,0-0.4
			c0-0.4,0-0.7,0-1.1c0-0.7-0.1-1.4-0.1-2.1c0-0.4,0-0.8-0.1-1.2c0-0.5-0.1-0.9-0.1-1.4c-0.1-1.3-0.2-2.5-0.3-3.8
			c-0.1-1.4-0.3-2.8-0.4-4.2c-0.1-0.5-0.1-0.9-0.2-1.4c-0.1-0.9-0.2-1.8-0.4-2.7c-0.2-1.4-0.4-2.7-0.6-4c-0.1-0.7-0.2-1.3-0.3-2
			c-0.1-0.4-0.2-0.8-0.2-1.3c-0.1-0.4-0.2-0.9-0.3-1.3c-0.1-0.4-0.2-0.9-0.3-1.3c-0.1-0.5-0.2-1-0.3-1.5c-0.2-0.8-0.3-1.6-0.5-2.4
			c-0.1-0.6-0.3-1.2-0.5-1.9c-0.2-0.6-0.3-1.2-0.5-1.9c-0.2-0.6-0.3-1.2-0.5-1.8c-0.4-1.4-0.8-2.7-1.2-4c-0.1-0.4-0.3-0.8-0.4-1.2
			c0-0.1,0-0.1,0-0.2c-0.1-0.3-0.2-0.6-0.3-0.9c-0.1-0.3-0.2-0.6-0.3-1c-0.2-0.5-0.4-1-0.6-1.6c-0.2-0.6-0.4-1.1-0.6-1.7
			c-0.2-0.5-0.4-1.1-0.6-1.7c-0.2-0.5-0.4-1-0.6-1.5c0-0.1,0-0.1-0.1-0.2c-0.2-0.5-0.5-1.1-0.7-1.6c-0.2-0.5-0.5-1.1-0.7-1.6
			c-0.2-0.5-0.5-1-0.7-1.5c-0.2-0.5-0.5-1-0.7-1.5c-0.6-1.1-1.1-2.2-1.7-3.3c-0.1-0.2-0.3-0.5-0.4-0.7c-0.1-0.1-0.1-0.2-0.2-0.3
			c-0.3-0.5-0.5-0.9-0.8-1.4c-0.5-0.8-0.9-1.6-1.4-2.3c-0.1-0.1-0.2-0.3-0.2-0.4c-0.8-1.3-1.7-2.6-2.6-3.8c-0.3-0.4-0.6-0.8-0.9-1.2
			c0,0,0,0,0,0c-6-7.8-13-13.3-20.7-15.6c-0.5-0.2-1-0.3-1.5-0.5c-0.3-0.1-0.5-0.1-0.8-0.2c-0.1,0-0.2,0-0.3-0.1
			c-0.2-0.1-0.4-0.1-0.7-0.1c-0.4-0.1-0.7-0.1-1-0.2l0,0c-0.3,0-0.6-0.1-1-0.1c-0.5-0.1-1.1-0.1-1.6-0.1c-0.2,0-0.5,0-0.7,0
			c-0.1,0-0.3,0-0.4,0c-0.1,0-0.3,0-0.4,0c0,0,0,0,0,0c-0.9,0-1.7,0-2.6,0.1l-0.3,0c-7.7,0.6-15.4,1.2-23.2,1.8
			c-4.2,0.3-8.3,0.6-12.5,1c-40.5,3.1-82.6,6.4-125.7,9.7l-0.4-4.6l-0.2-2.2c-0.1-0.8-0.3-1.6-0.6-2.3l0,0c-0.1-0.2-0.2-0.4-0.3-0.6
			c-0.9-1.7-2.4-3-4.3-3.7c-1-0.4-2-0.5-3.1-0.4l-35.2,2.7c-1.1,0.1-2.2,0.4-3.1,0.9c-0.5,0.2-0.9,0.5-1.3,0.9c0,0,0,0,0,0
			c-1.2,1-2.1,2.5-2.5,4.1c-0.2,0.8-0.3,1.5-0.2,2.4l0.2,2.3l0.4,4.6c-51.6,4.1-104.1,8.2-156.3,12.5c-31.5,2.8-43.3,48.6-43.3,76.8
			c0.2,3.8,1.3,22.5,7.3,40.4C249.2,229.8,260.8,241.1,276.2,241.7z M644.8,115.4c0.2,0,0.4,0,0.6,0c2,0,3.8,0.7,5.6,2.3
			c6.7,6.1,9.1,22.1,9.4,29.8c0.3,7.6-2.7,24.8-9.7,32.1c-2,2-4.1,3.1-6.3,3.1c-2.3,0-4.5-1-6.4-3c-6.4-6.5-9.2-21.9-9.1-30.8
			C628.8,138.7,632.9,116.2,644.8,115.4z M546.5,121.3c2.4-0.2,4.5,0.7,6.5,2.5c6.1,5.7,8.7,20,8.7,27.8c-0.1,5.2-1.3,13.6-4,20.6
			c-2.2,5.6-6,12.4-12.1,12.5c-2.3,0-4.5-0.9-6.5-2.9c-6.1-6.1-8.8-20.8-8.7-28.7C530.5,143.5,534.7,122.1,546.5,121.3z
			 M426.7,157.7c0.3-17.5,7.4-63.5,36.3-65.7c0.7-0.1,1.3-0.1,1.9-0.1c5.7,0,10.8,2.1,15.1,6.1c13.8,12.9,17.2,42.6,17,56.4
			c-0.3,23-9.5,70.3-36.1,70.3l-0.2,0c-6.2,0-11.8-2.6-16.5-7.4C430.9,203.6,426.4,174.1,426.7,157.7z M276.3,138.1
			c2.4-0.2,4.7,0.7,6.7,2.7c5.2,4.9,8.3,15.7,8.2,22.9c-0.1,9.4-5.5,27.2-15.5,27.4c-2.6,0.1-5-1-7.1-3.1
			c-5.2-5.1-7.9-15.5-7.9-22.7C260.9,154.4,266.3,138.9,276.3,138.1z"/>
		<path class="st9" d="M773.8,325.8l-249-16.8l0.6-44.9c-29.1-0.8-58.3-1.5-87.5-2.3l-0.6,41.2l-166.1-11.2c-0.6,0-1.4-0.1-2-0.1
			c-16,0-29,13.1-28.9,29.1c0,16,13.1,29,29.1,28.9l244.5-0.6l2.5,0.2c0.9,0.1,1.8,0,2.7-0.2l254.1-0.6c5.9,0,11-4.6,11.4-10.6
			C784.8,331.7,780,326.2,773.8,325.8z"/>
	</g>
</g>
<g>
	<path class="st9" d="M632.4,70.7c-0.1,0-0.2,0-0.2,0c0.1,0,0.3,0,0.4-0.1C632.5,70.7,632.4,70.7,632.4,70.7z"/>
	<path class="st5" d="M671.2,91.9c0.1,0.1,0.2,0.2,0.3,0.3c0.1,0.1,0.2,0.2,0.2,0.3C671.5,92.3,671.4,92.1,671.2,91.9z"/>
</g>
</svg>
