<?xml version="1.0" encoding="utf-8"?>
<!-- Generator: Adobe Illustrator 25.0.1, SVG Export Plug-In . SVG Version: 6.00 Build 0)  -->
<svg version="1.1" id="Layer_1" xmlns="http://www.w3.org/2000/svg" xmlns:xlink="http://www.w3.org/1999/xlink" x="0px" y="0px"
	 viewBox="0 0 993.8 681.9" style="enable-background:new 0 0 993.8 681.9;" xml:space="preserve">
<style type="text/css">
	.st0{fill:#74BAA0;}
	.st1{fill:#C6CEC7;}
	.st2{opacity:0.4;fill:url(#SVGID_1_);}
	.st3{opacity:0.35;fill:url(#SVGID_2_);}
	.st4{opacity:0.3;fill:url(#SVGID_3_);}
	.st5{fill:none;stroke:#000000;stroke-width:5;stroke-miterlimit:10;}
	.st6{fill:#CCD9CF;}
	.st7{fill:#67A38B;}
	.st8{opacity:0.28;fill:url(#SVGID_4_);}
	.st9{fill:none;stroke:#000000;stroke-width:3;stroke-miterlimit:10;}
	.st10{fill:none;stroke:#216651;stroke-width:5;stroke-miterlimit:10;}
	.st11{fill:#216651;}
	.st12{fill:none;stroke:#000000;stroke-width:5;stroke-linejoin:round;stroke-miterlimit:10;}
	.st13{opacity:0.5;fill:url(#SVGID_5_);}
	.st14{opacity:0.59;}
	.st15{opacity:0.77;}
	.st16{opacity:0.4;fill:url(#SVGID_6_);}
	.st17{opacity:0.35;fill:url(#SVGID_7_);}
	.st18{opacity:0.3;fill:url(#SVGID_8_);}
	.st19{opacity:0.28;fill:url(#SVGID_9_);}
	.st20{opacity:0.5;fill:url(#SVGID_10_);}
	.st21{fill:none;stroke:#216651;stroke-width:3;stroke-miterlimit:10;}
	.st22{fill:url(#SVGID_11_);}
	.st23{opacity:0.5;fill:#B3B3B3;}
	.st24{opacity:0.85;fill:url(#SVGID_12_);}
</style>
<path class="st5" d="M794.5,413H155.6c-47.8,0-86.6-38.8-86.6-86.6v0c0-47.8,38.8-86.6,86.6-86.6h638.9c47.8,0,86.6,38.8,86.6,86.6
	v0C881.1,374.2,842.4,413,794.5,413z"/>
<circle class="st9" cx="475.1" cy="326.4" r="63.4"/>
<circle class="st9" cx="620.4" cy="326.4" r="29.3"/>
<circle class="st9" cx="295.6" cy="326.4" r="7.3"/>
<circle cx="475.1" cy="326.4" r="26.2"/>
<circle class="st9" cx="704.8" cy="326.4" r="7.3"/>
<circle class="st9" cx="150.2" cy="326.4" r="29.3"/>
<circle class="st9" cx="789.1" cy="326.4" r="29.3"/>
<rect x="411.7" y="233.7" width="52.4" height="6"/>
<rect x="387.3" y="413" class="st9" width="175.6" height="71.9"/>
<rect x="387.3" y="413" class="st5" width="175.6" height="198.6"/>
<rect x="387.3" y="556.8" class="st9" width="175.6" height="54.8"/>
<line class="st10" x1="150.2" y1="298.8" x2="150.2" y2="219"/>
<line class="st10" x1="295.6" y1="319.1" x2="295.6" y2="219"/>
<line class="st10" x1="475.1" y1="262.1" x2="475.1" y2="219"/>
<g>
	<path class="st11" d="M157,198.3c-0.2,0.6-0.8,1.6-1.9,2.7c-2.4,2.4-5.8,2.7-8.6-0.1c-2.7-2.7-2.7-6.3,0-9c1.1-1.1,2-1.5,2.4-1.7
		l0.6,1.2c-0.6,0.2-1.4,0.7-2.1,1.4c-2,2-2.1,4.6,0.2,6.9c2.1,2.1,4.7,2.2,6.7,0.2c0.7-0.7,1.2-1.5,1.5-2.2L157,198.3z"/>
	<path class="st11" d="M152.1,186.1l3,0.6l-0.9,0.9l-1.9-0.5l0,0l0.5,1.9l-0.8,0.8l-0.6-3L152.1,186.1z M161.9,193.9l-0.9-0.7l0,0
		c0.1,0.8-0.1,1.9-1,2.8c-1.2,1.2-2.8,1-3.7,0.1c-1.5-1.5-1-3.6,1.4-6l-0.1-0.1c-0.5-0.5-1.6-1.3-2.8,0c-0.6,0.6-1,1.3-1.1,2.1
		l-1-0.5c0.2-0.8,0.7-1.8,1.5-2.6c1.9-1.9,3.6-1.1,4.9,0.2l2.3,2.3c0.5,0.5,1.1,1,1.6,1.4L161.9,193.9z M158.6,190.9
		c-1.2,1.2-2.4,2.8-1.2,4c0.7,0.7,1.6,0.6,2.1,0c0.8-0.8,0.8-1.8,0.5-2.5c-0.1-0.2-0.2-0.3-0.3-0.4L158.6,190.9z"/>
	<path class="st11" d="M160.2,186.7c-0.6-0.6-1.2-1.1-1.7-1.6l1-1l1,0.9l0,0c-0.2-0.9-0.2-2.1,0.8-3.1c0.8-0.8,2-1,3-0.5l0,0
		c-0.2-0.5-0.2-1-0.1-1.5c0.1-0.6,0.3-1.2,0.9-1.8c0.8-0.8,2.6-1.5,4.7,0.6l3.6,3.6l-1.1,1.1l-3.5-3.5c-1.2-1.2-2.3-1.5-3.2-0.6
		c-0.6,0.6-0.7,1.6-0.3,2.3c0.1,0.2,0.3,0.4,0.5,0.6l3.8,3.8l-1.1,1.1l-3.7-3.7c-1-1-2.1-1.3-3-0.4c-0.7,0.7-0.6,1.8-0.3,2.5
		c0.1,0.2,0.3,0.4,0.5,0.6l3.7,3.7l-1.1,1.1L160.2,186.7z"/>
	<path class="st11" d="M173,177.1c1.5,1.5,3.1,1.1,4.3,0c0.8-0.8,1.1-1.4,1.4-2l1,0.6c-0.2,0.6-0.7,1.5-1.7,2.4
		c-1.9,1.9-4.3,1.8-6.1-0.1c-1.9-1.9-2.2-4.4-0.4-6.2c2-2,4.3-0.8,5.4,0.4c0.2,0.2,0.4,0.4,0.5,0.6L173,177.1z M175.5,173
		c-0.7-0.7-2.1-1.5-3.4-0.3c-1.1,1.1-0.6,2.7,0.1,3.5L175.5,173z"/>
	<path class="st11" d="M177.4,170c-0.7-0.7-1.4-1.3-2-1.9l1-1l1.2,1.2l0.1-0.1c-0.5-1.1-0.4-2.3,0.4-3.1c0.1-0.1,0.2-0.2,0.4-0.3
		l1.1,1.1c-0.1,0.1-0.3,0.2-0.4,0.3c-0.8,0.8-0.8,1.9-0.1,2.9c0.1,0.2,0.3,0.4,0.5,0.6l3.3,3.3l-1.1,1.1L177.4,170z"/>
	<path class="st11" d="M189.1,166.7l-0.9-0.7l0,0c0.1,0.8-0.1,1.9-1,2.8c-1.2,1.2-2.8,1-3.7,0.1c-1.5-1.5-1-3.6,1.4-6l-0.1-0.1
		c-0.5-0.5-1.6-1.3-2.8,0c-0.6,0.6-1,1.3-1.1,2.1l-1-0.5c0.2-0.8,0.7-1.8,1.5-2.6c1.9-1.9,3.6-1.1,4.9,0.2l2.3,2.3
		c0.5,0.5,1.1,1,1.6,1.4L189.1,166.7z M185.8,163.7c-1.2,1.2-2.4,2.8-1.2,4c0.7,0.7,1.6,0.6,2.1,0c0.8-0.8,0.8-1.8,0.5-2.5
		c-0.1-0.2-0.2-0.3-0.3-0.4L185.8,163.7z"/>
	<path class="st11" d="M187.1,151.5l8.6,8.6l-1.1,1.1l-8.6-8.6L187.1,151.5z"/>
	<path class="st11" d="M193.2,153.6c-0.6-0.6-1.2-1.1-1.7-1.6l1-1l1.1,1l0,0c-0.3-0.9-0.1-2.2,0.9-3.2c0.9-0.9,2.7-1.7,4.8,0.4
		l3.7,3.7l-1.1,1.1l-3.6-3.6c-1-1-2.2-1.5-3.2-0.4c-0.7,0.7-0.8,1.8-0.4,2.6c0.1,0.2,0.3,0.4,0.4,0.6l3.7,3.7l-1.1,1.1L193.2,153.6z
		"/>
	<path class="st11" d="M204.9,150.9l-5.3-5.3l-0.9,0.9l-0.9-0.9l0.9-0.9l-0.3-0.3c-0.9-0.9-1.5-1.8-1.4-2.9c0-0.8,0.4-1.6,0.9-2.1
		c0.4-0.4,0.8-0.6,1.1-0.8l0.7,1c-0.2,0.1-0.5,0.3-0.9,0.6c-1,1-0.4,2,0.6,3l0.3,0.3l1.5-1.5l0.9,0.9l-1.5,1.5l5.3,5.3L204.9,150.9z
		"/>
	<path class="st11" d="M204.3,143.1c-0.7-0.7-1.4-1.3-2-1.9l1-1l1.2,1.2l0.1-0.1c-0.5-1.1-0.4-2.3,0.4-3.1c0.1-0.1,0.2-0.2,0.4-0.3
		l1.1,1.1c-0.1,0.1-0.3,0.2-0.4,0.3c-0.8,0.8-0.8,1.9-0.1,2.9c0.1,0.2,0.3,0.4,0.5,0.6l3.3,3.3l-1.1,1.1L204.3,143.1z"/>
	<path class="st11" d="M216,139.8l-0.9-0.7l0,0c0.1,0.8-0.1,1.9-1,2.8c-1.2,1.2-2.8,1-3.7,0.1c-1.5-1.5-1-3.6,1.4-6l-0.1-0.1
		c-0.5-0.5-1.6-1.3-2.8,0c-0.6,0.6-1,1.3-1.1,2.1l-1-0.5c0.2-0.8,0.7-1.8,1.5-2.6c1.9-1.9,3.6-1.1,4.9,0.2l2.3,2.3
		c0.5,0.5,1.1,1,1.6,1.4L216,139.8z M212.7,136.8c-1.2,1.2-2.4,2.8-1.2,4c0.7,0.7,1.6,0.6,2.1,0c0.8-0.8,0.8-1.8,0.5-2.5
		c-0.1-0.2-0.2-0.3-0.3-0.4L212.7,136.8z"/>
	<path class="st11" d="M212.9,130.6l4.7,2.3c0.8,0.4,1.4,0.7,2.1,1.1l0,0c-0.4-0.6-0.7-1.3-1.1-2.1l-2.3-4.7l1.2-1.2l3.7,8.6
		l-1.1,1.1l-8.5-3.8L212.9,130.6z"/>
	<path class="st11" d="M222.4,127.7c1.5,1.5,3.1,1.1,4.3,0c0.8-0.8,1.1-1.4,1.4-2l1,0.6c-0.2,0.6-0.7,1.5-1.7,2.4
		c-1.9,1.9-4.3,1.8-6.1-0.1s-2.2-4.4-0.4-6.2c2-2,4.3-0.8,5.4,0.4c0.2,0.2,0.4,0.4,0.5,0.6L222.4,127.7z M224.9,123.6
		c-0.7-0.7-2.1-1.5-3.4-0.3c-1.1,1.1-0.6,2.7,0.1,3.5L224.9,123.6z"/>
	<path class="st11" d="M226.8,120.6c-0.7-0.7-1.4-1.3-2-1.9l1-1l1.2,1.2l0.1-0.1c-0.5-1.1-0.4-2.3,0.4-3.1c0.1-0.1,0.2-0.2,0.4-0.3
		l1.1,1.1c-0.1,0.1-0.3,0.2-0.4,0.3c-0.8,0.8-0.8,1.9-0.1,2.9c0.1,0.2,0.3,0.4,0.5,0.6l3.3,3.3l-1.1,1.1L226.8,120.6z"/>
	<path class="st11" d="M230.7,116.1c-0.6-0.6-1.2-1.1-1.7-1.6l1-1l1,0.9l0,0c-0.2-0.9-0.2-2,0.8-3.1c0.8-0.8,2-1,3-0.5l0,0
		c-0.2-0.5-0.2-1-0.1-1.5c0.1-0.6,0.3-1.2,0.9-1.8c0.8-0.8,2.6-1.5,4.7,0.6l3.6,3.6l-1.1,1.1l-3.5-3.5c-1.2-1.2-2.3-1.5-3.2-0.6
		c-0.6,0.6-0.7,1.6-0.3,2.3c0.1,0.2,0.3,0.4,0.5,0.6l3.8,3.8l-1.1,1.1l-3.7-3.7c-1-1-2.1-1.3-3-0.4c-0.7,0.7-0.7,1.8-0.3,2.5
		c0.1,0.2,0.3,0.4,0.5,0.6l3.7,3.7l-1.1,1.1L230.7,116.1z"/>
	<path class="st11" d="M243.6,106.5c1.5,1.5,3.1,1.1,4.3,0c0.8-0.8,1.1-1.4,1.4-2l1,0.6c-0.2,0.6-0.7,1.5-1.7,2.4
		c-1.9,1.9-4.3,1.8-6.1-0.1c-1.9-1.9-2.2-4.4-0.4-6.2c2-2,4.3-0.8,5.4,0.4c0.2,0.2,0.4,0.4,0.5,0.6L243.6,106.5z M246.1,102.4
		c-0.7-0.7-2.1-1.5-3.4-0.3c-1.1,1.1-0.6,2.7,0.1,3.5L246.1,102.4z"/>
	<path class="st11" d="M243.2,94.6l1.1-1.1l9,9l-1.1,1.1L243.2,94.6z"/>
	<path class="st11" d="M246.2,91.6l1.1-1.1l3.8,3.8l0,0c-0.1-0.5-0.1-1.1,0-1.6c0.1-0.5,0.4-1,0.8-1.5c0.8-0.8,2.7-1.6,4.8,0.5
		l3.7,3.7l-1.1,1.1l-3.5-3.5c-1-1-2.2-1.5-3.3-0.4c-0.7,0.7-0.8,1.8-0.4,2.6c0.1,0.2,0.2,0.4,0.5,0.6l3.7,3.7l-1.1,1.1L246.2,91.6z"
		/>
	<path class="st11" d="M265.7,90.1l-0.9-0.7l0,0c0.1,0.8-0.1,1.9-1,2.8c-1.2,1.2-2.8,1-3.7,0.1c-1.5-1.5-1-3.6,1.4-6l-0.1-0.1
		c-0.5-0.5-1.6-1.3-2.8,0c-0.6,0.6-1,1.3-1.1,2.1l-1-0.5c0.2-0.8,0.7-1.8,1.5-2.6c1.9-1.9,3.6-1.1,4.9,0.2l2.3,2.3
		c0.5,0.5,1.1,1,1.6,1.4L265.7,90.1z M262.4,87.2c-1.2,1.2-2.4,2.8-1.2,4c0.7,0.7,1.6,0.6,2.1,0c0.8-0.8,0.8-1.8,0.5-2.5
		c-0.1-0.2-0.2-0.3-0.3-0.4L262.4,87.2z"/>
	<path class="st11" d="M158.1,211.4c0.6-0.8,1.3-1.7,2.2-2.5c1.6-1.6,3.1-2.4,4.5-2.4c1.5-0.1,2.9,0.5,4.3,1.9
		c1.4,1.4,2.1,3,2.1,4.6c0,1.6-0.9,3.4-2.6,5c-0.8,0.8-1.5,1.4-2.1,1.9L158.1,211.4z M166.8,217.9c0.3-0.2,0.8-0.6,1.2-1.1
		c2.4-2.4,2.3-5,0-7.3c-2-2-4.4-2.2-6.8,0.2c-0.6,0.6-1,1.1-1.2,1.4L166.8,217.9z"/>
	<path class="st11" d="M168.3,202.3c0.4,0.4,0.4,1,0,1.4c-0.4,0.4-1,0.4-1.4,0c-0.4-0.4-0.4-1,0-1.4
		C167.4,201.8,167.9,201.9,168.3,202.3z M175,211.4l-6.2-6.2l1.1-1.1l6.2,6.2L175,211.4z"/>
	<path class="st11" d="M173.7,204.2c-0.7-0.7-1.4-1.3-2-1.9l1-1l1.2,1.2l0.1-0.1c-0.5-1.1-0.4-2.3,0.4-3.1c0.1-0.1,0.2-0.2,0.4-0.3
		l1.1,1.1c-0.1,0.1-0.3,0.2-0.4,0.3c-0.8,0.8-0.8,1.9-0.1,2.9c0.1,0.2,0.3,0.4,0.5,0.6l3.3,3.3l-1.1,1.1L173.7,204.2z"/>
	<path class="st11" d="M179.7,200.9c1.5,1.5,3.1,1.1,4.3,0c0.8-0.8,1.1-1.4,1.4-2l1,0.6c-0.2,0.6-0.7,1.5-1.7,2.4
		c-1.9,1.9-4.3,1.8-6.1-0.1c-1.9-1.9-2.2-4.4-0.4-6.2c2-2,4.3-0.8,5.4,0.4c0.2,0.2,0.4,0.4,0.5,0.6L179.7,200.9z M182.2,196.8
		c-0.7-0.7-2.1-1.5-3.4-0.3c-1.1,1.1-0.6,2.7,0.1,3.5L182.2,196.8z"/>
	<path class="st11" d="M181.7,188.9c0.4,0.4,0.4,1,0,1.4c-0.4,0.4-1,0.4-1.4,0c-0.4-0.4-0.4-1,0-1.4
		C180.7,188.5,181.3,188.5,181.7,188.9z M188.4,198l-6.2-6.2l1.1-1.1l6.2,6.2L188.4,198z"/>
	<path class="st11" d="M184.8,185.8l1.8,1.8l1.6-1.6l0.9,0.9l-1.6,1.6l3.3,3.3c0.8,0.8,1.4,1,2,0.4c0.3-0.3,0.5-0.5,0.6-0.7l0.9,0.8
		c-0.1,0.3-0.4,0.7-0.8,1.1c-0.5,0.5-1.1,0.8-1.7,0.7c-0.6,0-1.3-0.4-2-1.2l-3.4-3.4l-1,1l-0.9-0.9l1-1l-1.5-1.5L184.8,185.8z"/>
	<path class="st11" d="M199,187.4l-0.9-0.7l0,0c0.1,0.8-0.1,1.9-1,2.8c-1.2,1.2-2.8,1-3.7,0.1c-1.5-1.5-1-3.6,1.4-6l-0.1-0.1
		c-0.5-0.5-1.6-1.3-2.8,0c-0.6,0.6-1,1.3-1.1,2.1l-1-0.5c0.2-0.8,0.7-1.8,1.5-2.6c1.9-1.9,3.6-1.1,4.9,0.2l2.3,2.3
		c0.5,0.5,1.1,1,1.6,1.4L199,187.4z M195.7,184.4c-1.2,1.2-2.4,2.8-1.2,4c0.7,0.7,1.6,0.6,2.1,0c0.8-0.8,0.8-1.8,0.5-2.5
		c-0.1-0.2-0.2-0.3-0.3-0.4L195.7,184.4z"/>
</g>
<line class="st10" x1="789.1" y1="298.8" x2="789.1" y2="219"/>
<g>
	<path class="st11" d="M795.8,198.3c-0.2,0.6-0.8,1.6-1.9,2.7c-2.4,2.4-5.8,2.7-8.6-0.1c-2.7-2.7-2.7-6.3,0-9c1.1-1.1,2-1.5,2.4-1.7
		l0.6,1.2c-0.6,0.2-1.4,0.7-2.1,1.4c-2,2-2.1,4.6,0.2,6.9c2.1,2.1,4.7,2.2,6.7,0.2c0.7-0.7,1.2-1.5,1.5-2.2L795.8,198.3z"/>
	<path class="st11" d="M791,186.1l3,0.6l-0.9,0.9l-1.9-0.5l0,0l0.5,1.9l-0.8,0.8l-0.6-3L791,186.1z M800.8,193.9l-0.9-0.7l0,0
		c0.1,0.8-0.1,1.9-1,2.8c-1.2,1.2-2.8,1-3.7,0.1c-1.5-1.5-1-3.6,1.4-6l-0.1-0.1c-0.5-0.5-1.6-1.3-2.8,0c-0.6,0.6-1,1.3-1.1,2.1
		l-1-0.5c0.2-0.8,0.7-1.8,1.5-2.6c1.9-1.9,3.6-1.1,4.9,0.2l2.3,2.3c0.5,0.5,1.1,1,1.6,1.4L800.8,193.9z M797.5,190.9
		c-1.2,1.2-2.4,2.8-1.2,4c0.7,0.7,1.6,0.6,2.1,0c0.8-0.8,0.8-1.8,0.5-2.5c-0.1-0.2-0.2-0.3-0.3-0.4L797.5,190.9z"/>
	<path class="st11" d="M799,186.7c-0.6-0.6-1.2-1.1-1.7-1.6l1-1l1,0.9l0,0c-0.2-0.9-0.2-2.1,0.8-3.1c0.8-0.8,2-1,3-0.5l0,0
		c-0.2-0.5-0.2-1-0.1-1.5c0.1-0.6,0.3-1.2,0.9-1.8c0.8-0.8,2.6-1.5,4.7,0.6l3.6,3.6l-1.1,1.1l-3.5-3.5c-1.2-1.2-2.3-1.5-3.2-0.6
		c-0.6,0.6-0.7,1.6-0.3,2.3c0.1,0.2,0.3,0.4,0.5,0.6l3.8,3.8l-1.1,1.1l-3.7-3.7c-1-1-2.1-1.3-3-0.4c-0.7,0.7-0.6,1.8-0.3,2.5
		c0.1,0.2,0.3,0.4,0.5,0.6l3.7,3.7l-1.1,1.1L799,186.7z"/>
	<path class="st11" d="M811.9,177.1c1.5,1.5,3.1,1.1,4.3,0c0.8-0.8,1.1-1.4,1.4-2l1,0.6c-0.2,0.6-0.7,1.5-1.7,2.4
		c-1.9,1.9-4.3,1.8-6.1-0.1c-1.9-1.9-2.2-4.4-0.4-6.2c2-2,4.3-0.8,5.4,0.4c0.2,0.2,0.4,0.4,0.5,0.6L811.9,177.1z M814.4,173
		c-0.7-0.7-2.1-1.5-3.4-0.3c-1.1,1.1-0.6,2.7,0.1,3.5L814.4,173z"/>
	<path class="st11" d="M816.3,170c-0.7-0.7-1.4-1.3-2-1.9l1-1l1.2,1.2l0.1-0.1c-0.5-1.1-0.4-2.3,0.4-3.1c0.1-0.1,0.2-0.2,0.4-0.3
		l1.1,1.1c-0.1,0.1-0.3,0.2-0.4,0.3c-0.8,0.8-0.8,1.9-0.1,2.9c0.1,0.2,0.3,0.4,0.5,0.6l3.3,3.3l-1.1,1.1L816.3,170z"/>
	<path class="st11" d="M828,166.7l-0.9-0.7l0,0c0.1,0.8-0.1,1.9-1,2.8c-1.2,1.2-2.8,1-3.7,0.1c-1.5-1.5-1-3.6,1.4-6l-0.1-0.1
		c-0.5-0.5-1.6-1.3-2.8,0c-0.6,0.6-1,1.3-1.1,2.1l-1-0.5c0.2-0.8,0.7-1.8,1.5-2.6c1.9-1.9,3.6-1.1,4.9,0.2l2.3,2.3
		c0.5,0.5,1.1,1,1.6,1.4L828,166.7z M824.7,163.7c-1.2,1.2-2.4,2.8-1.2,4c0.7,0.7,1.6,0.6,2.1,0c0.8-0.8,0.8-1.8,0.5-2.5
		c-0.1-0.2-0.2-0.3-0.3-0.4L824.7,163.7z"/>
	<path class="st11" d="M826,151.5l8.6,8.6l-1.1,1.1l-8.6-8.6L826,151.5z"/>
	<path class="st11" d="M832.1,153.6c-0.6-0.6-1.2-1.1-1.7-1.6l1-1l1.1,1l0,0c-0.3-0.9-0.1-2.2,0.9-3.2c0.9-0.9,2.7-1.7,4.8,0.4
		l3.7,3.7l-1.1,1.1l-3.6-3.6c-1-1-2.2-1.5-3.2-0.4c-0.7,0.7-0.8,1.8-0.4,2.6c0.1,0.2,0.3,0.4,0.4,0.6l3.7,3.7l-1.1,1.1L832.1,153.6z
		"/>
	<path class="st11" d="M843.8,150.9l-5.3-5.3l-0.9,0.9l-0.9-0.9l0.9-0.9l-0.3-0.3c-0.9-0.9-1.5-1.8-1.4-2.9c0-0.8,0.4-1.6,0.9-2.1
		c0.4-0.4,0.8-0.6,1.1-0.8l0.7,1c-0.2,0.1-0.5,0.3-0.9,0.6c-1,1-0.4,2,0.6,3l0.3,0.3l1.5-1.5l0.9,0.9l-1.5,1.5l5.3,5.3L843.8,150.9z
		"/>
	<path class="st11" d="M843.1,143.1c-0.7-0.7-1.4-1.3-2-1.9l1-1l1.2,1.2l0.1-0.1c-0.5-1.1-0.4-2.3,0.4-3.1c0.1-0.1,0.2-0.2,0.4-0.3
		l1.1,1.1c-0.1,0.1-0.3,0.2-0.4,0.3c-0.8,0.8-0.8,1.9-0.1,2.9c0.1,0.2,0.3,0.4,0.5,0.6l3.3,3.3l-1.1,1.1L843.1,143.1z"/>
	<path class="st11" d="M854.9,139.8l-0.9-0.7l0,0c0.1,0.8-0.1,1.9-1,2.8c-1.2,1.2-2.8,1-3.7,0.1c-1.5-1.5-1-3.6,1.4-6l-0.1-0.1
		c-0.5-0.5-1.6-1.3-2.8,0c-0.6,0.6-1,1.3-1.1,2.1l-1-0.5c0.2-0.8,0.7-1.8,1.5-2.6c1.9-1.9,3.6-1.1,4.9,0.2l2.3,2.3
		c0.5,0.5,1.1,1,1.6,1.4L854.9,139.8z M851.6,136.8c-1.2,1.2-2.4,2.8-1.2,4c0.7,0.7,1.6,0.6,2.1,0c0.8-0.8,0.8-1.8,0.5-2.5
		c-0.1-0.2-0.2-0.3-0.3-0.4L851.6,136.8z"/>
	<path class="st11" d="M851.8,130.6l4.7,2.3c0.8,0.4,1.4,0.7,2.1,1.1l0,0c-0.4-0.6-0.7-1.3-1.1-2.1l-2.3-4.7l1.2-1.2l3.7,8.6
		l-1.1,1.1l-8.5-3.8L851.8,130.6z"/>
	<path class="st11" d="M861.3,127.7c1.5,1.5,3.1,1.1,4.3,0c0.8-0.8,1.1-1.4,1.4-2l1,0.6c-0.2,0.6-0.7,1.5-1.7,2.4
		c-1.9,1.9-4.3,1.8-6.1-0.1s-2.2-4.4-0.4-6.2c2-2,4.3-0.8,5.4,0.4c0.2,0.2,0.4,0.4,0.5,0.6L861.3,127.7z M863.7,123.6
		c-0.7-0.7-2.1-1.5-3.4-0.3c-1.1,1.1-0.6,2.7,0.1,3.5L863.7,123.6z"/>
	<path class="st11" d="M865.6,120.6c-0.7-0.7-1.4-1.3-2-1.9l1-1l1.2,1.2l0.1-0.1c-0.5-1.1-0.4-2.3,0.4-3.1c0.1-0.1,0.2-0.2,0.4-0.3
		l1.1,1.1c-0.1,0.1-0.3,0.2-0.4,0.3c-0.8,0.8-0.8,1.9-0.1,2.9c0.1,0.2,0.3,0.4,0.5,0.6l3.3,3.3l-1.1,1.1L865.6,120.6z"/>
	<path class="st11" d="M869.6,116.1c-0.6-0.6-1.2-1.1-1.7-1.6l1-1l1,0.9l0,0c-0.2-0.9-0.2-2,0.8-3.1c0.8-0.8,2-1,3-0.5l0,0
		c-0.2-0.5-0.2-1-0.1-1.5c0.1-0.6,0.3-1.2,0.9-1.8c0.8-0.8,2.6-1.5,4.7,0.6l3.6,3.6l-1.1,1.1l-3.5-3.5c-1.2-1.2-2.3-1.5-3.2-0.6
		c-0.6,0.6-0.7,1.6-0.3,2.3c0.1,0.2,0.3,0.4,0.5,0.6l3.8,3.8l-1.1,1.1l-3.7-3.7c-1-1-2.1-1.3-3-0.4c-0.7,0.7-0.7,1.8-0.3,2.5
		c0.1,0.2,0.3,0.4,0.5,0.6l3.7,3.7l-1.1,1.1L869.6,116.1z"/>
	<path class="st11" d="M882.5,106.5c1.5,1.5,3.1,1.1,4.3,0c0.8-0.8,1.1-1.4,1.4-2l1,0.6c-0.2,0.6-0.7,1.5-1.7,2.4
		c-1.9,1.9-4.3,1.8-6.1-0.1s-2.2-4.4-0.4-6.2c2-2,4.3-0.8,5.4,0.4c0.2,0.2,0.4,0.4,0.5,0.6L882.5,106.5z M884.9,102.4
		c-0.7-0.7-2.1-1.5-3.4-0.3c-1.1,1.1-0.6,2.7,0.1,3.5L884.9,102.4z"/>
	<path class="st11" d="M882.1,94.6l1.1-1.1l9,9l-1.1,1.1L882.1,94.6z"/>
	<path class="st11" d="M885.1,91.6l1.1-1.1l3.8,3.8l0,0c-0.1-0.5-0.1-1.1,0-1.6c0.1-0.5,0.4-1,0.8-1.5c0.8-0.8,2.7-1.6,4.8,0.5
		l3.7,3.7l-1.1,1.1l-3.5-3.5c-1-1-2.2-1.5-3.3-0.4c-0.7,0.7-0.8,1.8-0.4,2.6c0.1,0.2,0.2,0.4,0.5,0.6l3.7,3.7l-1.1,1.1L885.1,91.6z"
		/>
	<path class="st11" d="M904.6,90.1l-0.9-0.7l0,0c0.1,0.8-0.1,1.9-1,2.8c-1.2,1.2-2.8,1-3.7,0.1c-1.5-1.5-1-3.6,1.4-6l-0.1-0.1
		c-0.5-0.5-1.6-1.3-2.8,0c-0.6,0.6-1,1.3-1.1,2.1l-1-0.5c0.2-0.8,0.7-1.8,1.5-2.6c1.9-1.9,3.6-1.1,4.9,0.2l2.3,2.3
		c0.5,0.5,1.1,1,1.6,1.4L904.6,90.1z M901.3,87.2c-1.2,1.2-2.4,2.8-1.2,4c0.7,0.7,1.6,0.6,2.1,0c0.8-0.8,0.8-1.8,0.5-2.5
		c-0.1-0.2-0.2-0.3-0.3-0.4L901.3,87.2z"/>
	<path class="st11" d="M805.8,211.4l-3.3,3.3l3.1,3.1l3.7-3.7l0.9,0.9l-4.8,4.8l-8.6-8.6l4.6-4.6l0.9,0.9l-3.5,3.5l2.7,2.7l3.3-3.3
		L805.8,211.4z"/>
	<path class="st11" d="M810.3,212.6c0.5-0.1,1.4-0.5,1.9-1c0.8-0.8,0.8-1.6,0.3-2.1c-0.5-0.5-1.1-0.5-2.3,0
		c-1.5,0.7-2.6,0.6-3.4-0.1c-1-1-1-2.6,0.3-3.9c0.6-0.6,1.4-1,1.9-1.1l0.5,1.1c-0.4,0.1-1,0.3-1.6,0.9c-0.7,0.7-0.6,1.4-0.2,1.9
		c0.5,0.5,1.1,0.4,2.2-0.1c1.5-0.7,2.6-0.7,3.5,0.2c1.1,1.1,1,2.7-0.5,4.2c-0.7,0.7-1.5,1.1-2.2,1.3L810.3,212.6z"/>
	<path class="st11" d="M819.9,203.4L819.9,203.4c0.3,1,0.1,2.1-0.9,3.1c-1.4,1.4-3.9,1.4-5.7-0.5c-2.3-2.3-1.8-4.8-0.5-6.1
		c1-1,2.1-1.1,3-0.8l0,0l-0.9-1l1.1-1.1c0.5,0.5,1,1.1,1.7,1.7l7,7l-1.1,1.1L819.9,203.4z M817.2,200.7c-0.2-0.2-0.3-0.3-0.5-0.4
		c-0.9-0.5-2-0.5-2.9,0.3c-1.2,1.2-0.9,2.8,0.5,4.2c1.2,1.2,2.9,1.7,4.1,0.5c0.7-0.7,0.9-1.8,0.4-2.8c-0.1-0.2-0.3-0.5-0.4-0.6
		L817.2,200.7z"/>
	<path class="st11" d="M827.3,194.6c0.6,0.6,1.2,1.2,1.7,1.6l-1,1l-1.1-0.9l0,0c0.2,0.8,0.2,2.1-0.9,3.2c-1,1-2.7,1.6-4.8-0.6
		l-3.6-3.6l1.1-1.1l3.4,3.4c1.2,1.2,2.3,1.6,3.3,0.6c0.8-0.8,0.8-1.8,0.5-2.5c-0.1-0.2-0.3-0.5-0.5-0.7l-3.8-3.8l1.1-1.1
		L827.3,194.6z"/>
	<path class="st11" d="M828.6,190.9c1.5,1.5,3.1,1.1,4.3,0c0.8-0.8,1.1-1.4,1.4-2l1,0.6c-0.2,0.6-0.7,1.5-1.7,2.4
		c-1.9,1.9-4.3,1.8-6.1-0.1c-1.9-1.9-2.2-4.4-0.4-6.2c2-2,4.3-0.8,5.4,0.4c0.2,0.2,0.4,0.4,0.5,0.6L828.6,190.9z M831.1,186.8
		c-0.7-0.7-2.1-1.5-3.4-0.3c-1.1,1.1-0.6,2.7,0.1,3.5L831.1,186.8z"/>
	<path class="st11" d="M833,183.8c-0.7-0.7-1.4-1.3-2-1.9l1-1l1.2,1.2l0.1-0.1c-0.5-1.1-0.4-2.3,0.4-3.1c0.1-0.1,0.2-0.2,0.4-0.3
		l1.1,1.1c-0.1,0.1-0.3,0.2-0.4,0.3c-0.8,0.8-0.8,1.9-0.1,2.9c0.1,0.2,0.3,0.4,0.5,0.6l3.3,3.3l-1.1,1.1L833,183.8z"/>
	<path class="st11" d="M837.5,169.6l7.4,7.4c0.5,0.5,1.2,1.2,1.6,1.5l-1,1l-1.1-1l0,0c0.3,1,0.1,2.3-0.9,3.3
		c-1.5,1.5-3.9,1.4-5.8-0.5c-2.1-2-2.1-4.6-0.5-6.1c0.9-0.9,2-1.1,2.8-0.9l0,0l-3.7-3.7L837.5,169.6z M841.8,176.1
		c-0.1-0.1-0.3-0.3-0.5-0.4c-0.9-0.5-2.1-0.5-2.9,0.3c-1.2,1.2-0.8,2.9,0.5,4.2c1.2,1.2,2.9,1.7,4.1,0.5c0.8-0.8,0.9-1.9,0.3-3
		c-0.1-0.2-0.3-0.4-0.4-0.5L841.8,176.1z"/>
	<path class="st11" d="M851.8,173.4l-0.9-0.7l0,0c0.1,0.8-0.1,1.9-1,2.8c-1.2,1.2-2.8,1-3.7,0.1c-1.5-1.5-1-3.6,1.4-6l-0.1-0.1
		c-0.5-0.5-1.6-1.3-2.8,0c-0.6,0.6-1,1.3-1.1,2.1l-1-0.5c0.2-0.8,0.7-1.8,1.5-2.6c1.9-1.9,3.6-1.1,4.9,0.2l2.3,2.3
		c0.5,0.5,1.1,1,1.6,1.4L851.8,173.4z M848.5,170.4c-1.2,1.2-2.4,2.8-1.2,4c0.7,0.7,1.6,0.6,2.1,0c0.8-0.8,0.8-1.8,0.5-2.5
		c-0.1-0.2-0.2-0.3-0.3-0.4L848.5,170.4z"/>
</g>
<g>
	<path class="st11" d="M300.1,193.6c-1.3-1.1-2.8-2.5-3.8-3.6l0,0c0.7,1.3,1.4,2.7,2.2,4.3l2.6,5.7l-0.8,0.8l-5.5-2.7
		c-1.6-0.8-3.1-1.6-4.3-2.3l0,0c1,1.1,2.4,2.6,3.6,4l3.5,3.9l-1.1,1.1l-8-9.2l1.4-1.4l5.6,2.7c1.4,0.7,2.6,1.4,3.8,2l0,0
		c-0.6-1.1-1.3-2.3-2-3.8l-2.6-5.7l1.4-1.4l9.1,8l-1.1,1.1L300.1,193.6z"/>
	<path class="st11" d="M300.3,185.1c0.4,0.4,0.4,1,0,1.4c-0.4,0.4-1,0.4-1.4,0c-0.4-0.4-0.4-1,0-1.4
		C299.4,184.7,299.9,184.7,300.3,185.1z M307,194.2l-6.2-6.2l1.1-1.1l6.2,6.2L307,194.2z"/>
	<path class="st11" d="M314.1,186.6c-0.1,0.4-0.6,1.3-1.4,2.1c-1.9,1.9-4.3,1.8-6.2-0.1c-1.9-1.9-2-4.6,0-6.6
		c0.7-0.7,1.4-1.1,1.9-1.2l0.6,1.1c-0.4,0.1-1,0.4-1.6,1c-1.4,1.4-1.1,3.2,0.2,4.5c1.4,1.4,3.2,1.4,4.4,0.2c0.6-0.6,0.9-1.2,1.1-1.7
		L314.1,186.6z"/>
	<path class="st11" d="M311.4,181.3c-0.7-0.7-1.4-1.3-2-1.9l1-1l1.2,1.2l0.1-0.1c-0.5-1.1-0.4-2.3,0.4-3.1c0.1-0.1,0.2-0.2,0.4-0.3
		l1.1,1.1c-0.1,0.1-0.3,0.2-0.4,0.3c-0.8,0.8-0.8,1.9-0.1,2.9c0.1,0.2,0.3,0.4,0.5,0.6l3.3,3.3l-1.1,1.1L311.4,181.3z"/>
	<path class="st11" d="M322.1,172.8c2.3,2.3,1.7,4.9,0.2,6.3c-1.7,1.7-4.2,1.7-6.1-0.2c-2.1-2.1-1.9-4.6-0.2-6.3
		C317.8,170.8,320.2,170.9,322.1,172.8z M317.3,177.8c1.3,1.3,3.1,1.6,4.2,0.5c1.1-1.1,0.9-2.9-0.5-4.3c-1-1-2.9-1.8-4.2-0.5
		C315.5,174.8,316.1,176.6,317.3,177.8z"/>
	<path class="st11" d="M326.8,174.4l-5.3-5.3l-0.9,0.9l-0.9-0.9l0.9-0.9l-0.3-0.3c-0.9-0.9-1.5-1.8-1.4-2.9c0-0.8,0.4-1.6,0.9-2.1
		c0.4-0.4,0.8-0.6,1.1-0.8l0.7,1c-0.2,0.1-0.5,0.3-0.9,0.6c-1,1-0.4,2,0.6,3l0.3,0.3l1.5-1.5l0.9,0.9l-1.5,1.5l5.3,5.3L326.8,174.4z
		"/>
	<path class="st11" d="M332.7,162.3c2.3,2.3,1.7,4.9,0.2,6.3c-1.7,1.7-4.2,1.7-6.1-0.2c-2.1-2.1-1.9-4.6-0.2-6.3
		C328.3,160.3,330.8,160.4,332.7,162.3z M327.8,167.2c1.3,1.3,3.1,1.6,4.2,0.5c1.1-1.1,0.9-2.9-0.5-4.3c-1-1-2.9-1.8-4.2-0.5
		C326,164.3,326.7,166.1,327.8,167.2z"/>
	<path class="st11" d="M332.7,159.5c-0.6-0.6-1.2-1.1-1.7-1.6l1-1l1.1,1l0,0c-0.3-0.9-0.1-2.2,0.9-3.2c0.9-0.9,2.7-1.7,4.8,0.4
		l3.7,3.7l-1.1,1.1l-3.6-3.6c-1-1-2.2-1.5-3.2-0.4c-0.7,0.7-0.8,1.8-0.4,2.6c0.1,0.2,0.3,0.4,0.4,0.6l3.7,3.7l-1.1,1.1L332.7,159.5z
		"/>
	<path class="st11" d="M342,153.4c1.5,1.5,3.1,1.1,4.3,0c0.8-0.8,1.1-1.4,1.4-2l1,0.6c-0.2,0.6-0.7,1.5-1.7,2.4
		c-1.9,1.9-4.3,1.8-6.1-0.1c-1.9-1.9-2.2-4.4-0.4-6.2c2-2,4.3-0.8,5.4,0.4c0.2,0.2,0.4,0.4,0.5,0.6L342,153.4z M344.5,149.3
		c-0.7-0.7-2.1-1.5-3.4-0.3c-1.1,1.1-0.6,2.7,0.1,3.5L344.5,149.3z"/>
</g>
<line class="st10" x1="704.8" y1="319.1" x2="704.8" y2="219"/>
<g>
	<path class="st11" d="M709.2,193.6c-1.3-1.1-2.8-2.5-3.8-3.6l0,0c0.7,1.3,1.4,2.7,2.2,4.3l2.6,5.7l-0.8,0.8l-5.5-2.7
		c-1.6-0.8-3.1-1.6-4.3-2.3l0,0c1,1.1,2.4,2.6,3.6,4l3.5,3.9l-1.1,1.1l-8-9.2l1.4-1.4l5.6,2.7c1.4,0.7,2.6,1.4,3.8,2l0,0
		c-0.6-1.1-1.3-2.3-2-3.8l-2.6-5.7l1.4-1.4l9.1,8l-1.1,1.1L709.2,193.6z"/>
	<path class="st11" d="M709.5,185.1c0.4,0.4,0.4,1,0,1.4c-0.4,0.4-1,0.4-1.4,0c-0.4-0.4-0.4-1,0-1.4
		C708.5,184.7,709.1,184.7,709.5,185.1z M716.1,194.2l-6.2-6.2l1.1-1.1l6.2,6.2L716.1,194.2z"/>
	<path class="st11" d="M723.3,186.6c-0.1,0.4-0.6,1.3-1.4,2.1c-1.9,1.9-4.3,1.8-6.2-0.1c-1.9-1.9-2-4.6,0-6.6
		c0.7-0.7,1.4-1.1,1.9-1.2l0.6,1.1c-0.4,0.1-1,0.4-1.6,1c-1.4,1.4-1.1,3.2,0.2,4.5c1.4,1.4,3.2,1.4,4.4,0.2c0.6-0.6,0.9-1.2,1.1-1.7
		L723.3,186.6z"/>
	<path class="st11" d="M720.6,181.3c-0.7-0.7-1.4-1.3-2-1.9l1-1l1.2,1.2l0.1-0.1c-0.5-1.1-0.4-2.3,0.4-3.1c0.1-0.1,0.2-0.2,0.4-0.3
		l1.1,1.1c-0.1,0.1-0.3,0.2-0.4,0.3c-0.8,0.8-0.8,1.9-0.1,2.9c0.1,0.2,0.3,0.4,0.5,0.6l3.3,3.3l-1.1,1.1L720.6,181.3z"/>
	<path class="st11" d="M731.3,172.8c2.3,2.3,1.7,4.9,0.2,6.3c-1.7,1.7-4.2,1.7-6.1-0.2c-2.1-2.1-1.9-4.6-0.2-6.3
		C726.9,170.8,729.4,170.9,731.3,172.8z M726.5,177.8c1.3,1.3,3.1,1.6,4.2,0.5c1.1-1.1,0.9-2.9-0.5-4.3c-1-1-2.9-1.8-4.2-0.5
		C724.6,174.8,725.3,176.6,726.5,177.8z"/>
	<path class="st11" d="M735.9,174.4l-5.3-5.3l-0.9,0.9l-0.9-0.9l0.9-0.9l-0.3-0.3c-0.9-0.9-1.5-1.8-1.4-2.9c0-0.8,0.4-1.6,0.9-2.1
		c0.4-0.4,0.8-0.6,1.1-0.8l0.7,1c-0.2,0.1-0.5,0.3-0.9,0.6c-1,1-0.4,2,0.6,3l0.3,0.3l1.5-1.5l0.9,0.9l-1.5,1.5l5.3,5.3L735.9,174.4z
		"/>
	<path class="st11" d="M741.8,162.3c2.3,2.3,1.7,4.9,0.2,6.3c-1.7,1.7-4.2,1.7-6.1-0.2c-2.1-2.1-1.9-4.6-0.2-6.3
		C737.5,160.3,739.9,160.4,741.8,162.3z M737,167.2c1.3,1.3,3.1,1.6,4.2,0.5c1.1-1.1,0.9-2.9-0.5-4.3c-1-1-2.9-1.8-4.2-0.5
		C735.2,164.3,735.8,166.1,737,167.2z"/>
	<path class="st11" d="M741.9,159.5c-0.6-0.6-1.2-1.1-1.7-1.6l1-1l1.1,1l0,0c-0.3-0.9-0.1-2.2,0.9-3.2c0.9-0.9,2.7-1.7,4.8,0.4
		l3.7,3.7l-1.1,1.1l-3.6-3.6c-1-1-2.2-1.5-3.2-0.4c-0.7,0.7-0.8,1.8-0.4,2.6c0.1,0.2,0.3,0.4,0.4,0.6l3.7,3.7l-1.1,1.1L741.9,159.5z
		"/>
	<path class="st11" d="M751.2,153.4c1.5,1.5,3.1,1.1,4.3,0c0.8-0.8,1.1-1.4,1.4-2l1,0.6c-0.2,0.6-0.7,1.5-1.7,2.4
		c-1.9,1.9-4.3,1.8-6.1-0.1c-1.9-1.9-2.2-4.4-0.4-6.2c2-2,4.3-0.8,5.4,0.4c0.2,0.2,0.4,0.4,0.5,0.6L751.2,153.4z M753.7,149.3
		c-0.7-0.7-2.1-1.5-3.4-0.3c-1.1,1.1-0.6,2.7,0.1,3.5L753.7,149.3z"/>
</g>
<g>
	<path class="st11" d="M481.8,198.3c-0.2,0.6-0.8,1.6-1.9,2.7c-2.4,2.4-5.8,2.7-8.6-0.1c-2.7-2.7-2.7-6.3,0-9c1.1-1.1,2-1.5,2.4-1.7
		l0.6,1.2c-0.6,0.2-1.4,0.7-2.1,1.4c-2,2-2.1,4.6,0.2,6.9c2.1,2.1,4.7,2.2,6.7,0.2c0.7-0.7,1.2-1.5,1.5-2.2L481.8,198.3z"/>
	<path class="st11" d="M477,186l3,0.6l-0.9,0.9l-1.9-0.5l0,0l0.5,1.9l-0.8,0.8l-0.6-3L477,186z M486.8,193.9l-0.9-0.7l0,0
		c0.1,0.8-0.1,1.9-1,2.8c-1.2,1.2-2.8,1-3.7,0.1c-1.5-1.5-1-3.6,1.4-6l-0.1-0.1c-0.5-0.5-1.6-1.3-2.8,0c-0.6,0.6-1,1.3-1.1,2.1
		l-1-0.5c0.2-0.8,0.7-1.8,1.5-2.6c1.9-1.9,3.6-1.1,4.9,0.2l2.3,2.3c0.5,0.5,1.1,1,1.6,1.4L486.8,193.9z M483.5,190.9
		c-1.2,1.2-2.4,2.8-1.2,4c0.7,0.7,1.6,0.6,2.1,0c0.8-0.8,0.8-1.8,0.5-2.5c-0.1-0.2-0.2-0.3-0.3-0.4L483.5,190.9z"/>
	<path class="st11" d="M485,186.7c-0.6-0.6-1.2-1.1-1.7-1.6l1-1l1,0.9l0,0c-0.2-0.9-0.2-2.1,0.8-3.1c0.8-0.8,2-1,3-0.5l0,0
		c-0.2-0.5-0.2-1-0.1-1.5c0.1-0.6,0.3-1.2,0.9-1.8c0.8-0.8,2.6-1.5,4.7,0.6l3.6,3.6l-1.1,1.1l-3.5-3.5c-1.2-1.2-2.3-1.5-3.2-0.6
		c-0.6,0.6-0.7,1.6-0.3,2.3c0.1,0.2,0.3,0.4,0.5,0.6l3.8,3.8l-1.1,1.1l-3.7-3.7c-1-1-2.1-1.3-3-0.4c-0.7,0.7-0.6,1.8-0.3,2.5
		c0.1,0.2,0.3,0.4,0.5,0.6l3.7,3.7l-1.1,1.1L485,186.7z"/>
	<path class="st11" d="M497.8,177.1c1.5,1.5,3.1,1.1,4.3,0c0.8-0.8,1.1-1.4,1.4-2l1,0.6c-0.2,0.6-0.7,1.5-1.7,2.4
		c-1.9,1.9-4.3,1.8-6.1-0.1c-1.9-1.9-2.2-4.4-0.4-6.2c2-2,4.3-0.8,5.4,0.4c0.2,0.2,0.4,0.4,0.5,0.6L497.8,177.1z M500.3,173
		c-0.7-0.7-2.1-1.5-3.4-0.3c-1.1,1.1-0.6,2.7,0.1,3.5L500.3,173z"/>
	<path class="st11" d="M502.2,170c-0.7-0.7-1.4-1.3-2-1.9l1-1l1.2,1.2l0.1-0.1c-0.5-1.1-0.4-2.3,0.4-3.1c0.1-0.1,0.2-0.2,0.4-0.3
		l1.1,1.1c-0.1,0.1-0.3,0.2-0.4,0.3c-0.8,0.8-0.8,1.9-0.1,2.9c0.1,0.2,0.3,0.4,0.5,0.6l3.3,3.3l-1.1,1.1L502.2,170z"/>
	<path class="st11" d="M514,166.7l-0.9-0.7l0,0c0.1,0.8-0.1,1.9-1,2.8c-1.2,1.2-2.8,1-3.7,0.1c-1.5-1.5-1-3.6,1.4-6l-0.1-0.1
		c-0.5-0.5-1.6-1.3-2.8,0c-0.6,0.6-1,1.3-1.1,2.1l-1-0.5c0.2-0.8,0.7-1.8,1.5-2.6c1.9-1.9,3.6-1.1,4.9,0.2l2.3,2.3
		c0.5,0.5,1.1,1,1.6,1.4L514,166.7z M510.7,163.7c-1.2,1.2-2.4,2.8-1.2,4c0.7,0.7,1.6,0.6,2.1,0c0.8-0.8,0.8-1.8,0.5-2.5
		c-0.1-0.2-0.2-0.3-0.3-0.4L510.7,163.7z"/>
</g>
<line class="st10" x1="620.4" y1="295.5" x2="620.4" y2="219"/>
<g>
	<path class="st11" d="M612.9,196.1c0.4-0.6,1.1-1.4,2-2.3c1.1-1.1,2.2-1.6,3.1-1.7c0.9-0.1,1.8,0.3,2.5,1c0.8,0.8,1.2,1.6,1.2,2.5
		c0,1.2-0.6,2.5-1.7,3.6c-0.3,0.3-0.6,0.6-1,0.8l3.4,3.4l-1.1,1.1L612.9,196.1z M618.2,199.1c0.3-0.2,0.6-0.5,1-0.8
		c1.3-1.3,1.5-2.8,0.3-4c-1.1-1.1-2.5-0.9-3.7,0.3c-0.5,0.5-0.8,0.9-1,1.1L618.2,199.1z"/>
	<path class="st11" d="M623.7,193.8c-0.7-0.7-1.4-1.3-2-1.9l1-1l1.2,1.2l0.1-0.1c-0.5-1.1-0.4-2.3,0.4-3.1c0.1-0.1,0.2-0.2,0.4-0.3
		l1.1,1.1c-0.1,0.1-0.3,0.2-0.4,0.3c-0.8,0.8-0.8,1.9-0.1,2.9c0.1,0.2,0.3,0.4,0.5,0.6l3.3,3.3l-1.1,1.1L623.7,193.8z"/>
	<path class="st11" d="M634.4,185.3c2.3,2.3,1.7,4.9,0.2,6.3c-1.7,1.7-4.2,1.7-6.1-0.2c-2.1-2.1-1.9-4.6-0.2-6.3
		C630.1,183.3,632.6,183.4,634.4,185.3z M629.6,190.3c1.3,1.3,3.1,1.6,4.2,0.5c1.1-1.1,0.9-2.9-0.5-4.3c-1-1-2.9-1.8-4.2-0.5
		C627.8,187.3,628.4,189.1,629.6,190.3z"/>
	<path class="st11" d="M632.5,177.8c0.4,0.4,0.4,0.9,0,1.4c-0.4,0.4-1,0.4-1.4,0c-0.4-0.4-0.4-1,0-1.4
		C631.5,177.3,632.1,177.4,632.5,177.8z M639.3,190.3c0.5-0.5,0.8-1.1,0.8-1.7c-0.1-0.7-0.4-1.3-1.9-2.7l-5.2-5.2l1.1-1.1l5.6,5.6
		c1.2,1.2,1.8,2.2,1.8,3.3c0,1-0.6,2-1.2,2.6L639.3,190.3z"/>
	<path class="st11" d="M639.8,180.4c1.5,1.5,3.1,1.1,4.3,0c0.8-0.8,1.1-1.4,1.4-2l1,0.6c-0.2,0.6-0.7,1.5-1.7,2.4
		c-1.9,1.9-4.3,1.8-6.1-0.1s-2.2-4.4-0.4-6.2c2-2,4.3-0.8,5.4,0.4c0.2,0.2,0.4,0.4,0.5,0.6L639.8,180.4z M642.3,176.4
		c-0.7-0.7-2.1-1.5-3.4-0.3c-1.1,1.1-0.6,2.7,0.1,3.5L642.3,176.4z"/>
	<path class="st11" d="M641.9,168.3l1.8,1.8l1.6-1.6l0.9,0.9l-1.6,1.6l3.3,3.3c0.8,0.8,1.4,1,2,0.4c0.3-0.3,0.5-0.5,0.6-0.7l0.9,0.8
		c-0.1,0.3-0.4,0.7-0.8,1.1c-0.5,0.5-1.1,0.8-1.7,0.7c-0.6,0-1.3-0.4-2-1.2l-3.4-3.4l-1,1l-0.9-0.9l1-1l-1.5-1.5L641.9,168.3z"/>
	<path class="st11" d="M655,164.7c2.3,2.3,1.7,4.9,0.2,6.3c-1.7,1.7-4.2,1.7-6.1-0.2c-2.1-2.1-1.9-4.6-0.2-6.3
		C650.7,162.7,653.1,162.8,655,164.7z M650.2,169.7c1.3,1.3,3.1,1.6,4.2,0.5c1.1-1.1,0.9-2.9-0.5-4.3c-1-1-2.9-1.8-4.2-0.5
		C648.4,166.7,649,168.5,650.2,169.7z"/>
	<path class="st11" d="M655.3,162.2c-0.7-0.7-1.4-1.3-2-1.9l1-1l1.2,1.2l0.1-0.1c-0.5-1.1-0.4-2.3,0.4-3.1c0.1-0.1,0.2-0.2,0.4-0.3
		l1.1,1.1c-0.1,0.1-0.3,0.2-0.4,0.3c-0.8,0.8-0.8,1.9-0.1,2.9c0.1,0.2,0.3,0.4,0.5,0.6l3.3,3.3l-1.1,1.1L655.3,162.2z"/>
	<path class="st11" d="M659,149.9l8.6,8.6l-1.1,1.1l-8.6-8.6L659,149.9z"/>
	<path class="st11" d="M665.1,151.9c-0.6-0.6-1.2-1.1-1.7-1.6l1-1l1.1,1l0,0c-0.3-0.9-0.1-2.2,0.9-3.2c0.9-0.9,2.7-1.7,4.8,0.4
		l3.7,3.7l-1.1,1.1l-3.6-3.6c-1-1-2.2-1.5-3.2-0.4c-0.7,0.7-0.8,1.8-0.4,2.6c0.1,0.2,0.3,0.4,0.4,0.6l3.7,3.7l-1.1,1.1L665.1,151.9z
		"/>
	<path class="st11" d="M676.8,149.2l-5.3-5.3l-0.9,0.9l-0.9-0.9l0.9-0.9l-0.3-0.3c-0.9-0.9-1.5-1.8-1.4-2.9c0-0.8,0.4-1.6,0.9-2.1
		c0.4-0.4,0.8-0.6,1.1-0.8l0.7,1c-0.2,0.1-0.5,0.3-0.9,0.6c-1,1-0.4,2,0.6,3l0.3,0.3l1.5-1.5l0.9,0.9l-1.5,1.5l5.3,5.3L676.8,149.2z
		"/>
	<path class="st11" d="M676.1,141.4c-0.7-0.7-1.4-1.3-2-1.9l1-1l1.2,1.2l0.1-0.1c-0.5-1.1-0.4-2.3,0.4-3.1c0.1-0.1,0.2-0.2,0.4-0.3
		l1.1,1.1c-0.1,0.1-0.3,0.2-0.4,0.3c-0.8,0.8-0.8,1.9-0.1,2.9c0.1,0.2,0.3,0.4,0.5,0.6l3.3,3.3l-1.1,1.1L676.1,141.4z"/>
	<path class="st11" d="M687.9,138.1l-0.9-0.7l0,0c0.1,0.8-0.1,1.9-1,2.8c-1.2,1.2-2.8,1-3.7,0.1c-1.5-1.5-1-3.6,1.4-6l-0.1-0.1
		c-0.5-0.5-1.6-1.3-2.8,0c-0.6,0.6-1,1.3-1.1,2.1l-1-0.5c0.2-0.8,0.7-1.8,1.5-2.6c1.9-1.9,3.6-1.1,4.9,0.2l2.3,2.3
		c0.5,0.5,1.1,1,1.6,1.4L687.9,138.1z M684.6,135.1c-1.2,1.2-2.4,2.8-1.2,4c0.7,0.7,1.6,0.6,2.1,0c0.8-0.8,0.8-1.8,0.5-2.5
		c-0.1-0.2-0.2-0.3-0.3-0.4L684.6,135.1z"/>
	<path class="st11" d="M684.8,128.9l4.7,2.3c0.8,0.4,1.4,0.7,2.1,1.1l0,0c-0.4-0.6-0.7-1.3-1.1-2.1l-2.3-4.7l1.2-1.2l3.7,8.6
		l-1.1,1.1l-8.5-3.8L684.8,128.9z"/>
	<path class="st11" d="M694.3,126c1.5,1.5,3.1,1.1,4.3,0c0.8-0.8,1.1-1.4,1.4-2l1,0.6c-0.2,0.6-0.7,1.5-1.7,2.4
		c-1.9,1.9-4.3,1.8-6.1-0.1s-2.2-4.4-0.4-6.2c2-2,4.3-0.8,5.4,0.4c0.2,0.2,0.4,0.4,0.5,0.6L694.3,126z M696.7,121.9
		c-0.7-0.7-2.1-1.5-3.4-0.3c-1.1,1.1-0.6,2.7,0.1,3.5L696.7,121.9z"/>
	<path class="st11" d="M698.6,118.9c-0.7-0.7-1.4-1.3-2-1.9l1-1l1.2,1.2l0.1-0.1c-0.5-1.1-0.4-2.3,0.4-3.1c0.1-0.1,0.2-0.2,0.4-0.3
		l1.1,1.1c-0.1,0.1-0.3,0.2-0.4,0.3c-0.8,0.8-0.8,1.9-0.1,2.9c0.1,0.2,0.3,0.4,0.5,0.6l3.3,3.3l-1.1,1.1L698.6,118.9z"/>
	<path class="st11" d="M702.6,114.4c-0.6-0.6-1.2-1.1-1.7-1.6l1-1l1,0.9l0,0c-0.2-0.9-0.2-2,0.8-3.1c0.8-0.8,2-1,3-0.5l0,0
		c-0.2-0.5-0.2-1-0.1-1.5c0.1-0.6,0.3-1.2,0.9-1.8c0.8-0.8,2.6-1.5,4.7,0.6l3.6,3.6l-1.1,1.1l-3.5-3.5c-1.2-1.2-2.3-1.5-3.2-0.6
		c-0.6,0.6-0.7,1.6-0.3,2.3c0.1,0.2,0.3,0.4,0.5,0.6l3.8,3.8l-1.1,1.1l-3.7-3.7c-1-1-2.1-1.3-3-0.4c-0.7,0.7-0.6,1.8-0.3,2.5
		c0.1,0.2,0.3,0.4,0.5,0.6l3.7,3.7l-1.1,1.1L702.6,114.4z"/>
	<path class="st11" d="M715.5,104.8c1.5,1.5,3.1,1.1,4.3,0c0.8-0.8,1.1-1.4,1.4-2l1,0.6c-0.2,0.6-0.7,1.5-1.7,2.4
		c-1.9,1.9-4.3,1.8-6.1-0.1c-1.9-1.9-2.2-4.4-0.4-6.2c2-2,4.3-0.8,5.4,0.4c0.2,0.2,0.4,0.4,0.5,0.6L715.5,104.8z M717.9,100.7
		c-0.7-0.7-2.1-1.5-3.4-0.3c-1.1,1.1-0.6,2.7,0.1,3.5L717.9,100.7z"/>
	<path class="st11" d="M715.1,92.9l1.1-1.1l9,9l-1.1,1.1L715.1,92.9z"/>
	<path class="st11" d="M718.1,89.9l1.1-1.1l3.8,3.8l0,0c-0.1-0.5-0.1-1.1,0-1.6c0.1-0.5,0.4-1,0.8-1.5c0.8-0.8,2.7-1.6,4.8,0.5
		l3.7,3.7l-1.1,1.1l-3.5-3.5c-1-1-2.2-1.5-3.3-0.4c-0.7,0.7-0.8,1.8-0.4,2.6c0.1,0.2,0.2,0.4,0.5,0.6l3.7,3.7l-1.1,1.1L718.1,89.9z"
		/>
	<path class="st11" d="M736.6,83.1c2.3,2.3,1.7,4.9,0.2,6.3c-1.7,1.7-4.2,1.7-6.1-0.2c-2.1-2.1-1.9-4.6-0.2-6.3
		C732.2,81.2,734.7,81.3,736.6,83.1z M731.8,88.1c1.3,1.3,3.1,1.6,4.2,0.5c1.1-1.1,0.9-2.9-0.5-4.3c-1-1-2.9-1.8-4.2-0.5
		C730,85.1,730.6,86.9,731.8,88.1z"/>
</g>
<line class="st10" x1="438.5" y1="234.3" x2="438.5" y2="219"/>
<g>
	<path class="st11" d="M430.4,196.1c0.4-0.6,1.1-1.4,2-2.3c1.1-1.1,2.2-1.6,3.1-1.7c0.9-0.1,1.8,0.3,2.5,1c0.8,0.8,1.2,1.6,1.2,2.5
		c0,1.2-0.6,2.5-1.7,3.6c-0.3,0.3-0.6,0.6-1,0.8l3.4,3.4l-1.1,1.1L430.4,196.1z M435.7,199.1c0.3-0.2,0.6-0.5,1-0.8
		c1.3-1.3,1.5-2.8,0.3-4c-1.1-1.1-2.5-0.9-3.7,0.3c-0.5,0.5-0.8,0.9-1,1.1L435.7,199.1z"/>
	<path class="st11" d="M441.2,193.8c-0.7-0.7-1.4-1.3-2-1.9l1-1l1.2,1.2l0.1-0.1c-0.5-1.1-0.4-2.3,0.4-3.1c0.1-0.1,0.2-0.2,0.4-0.3
		l1.1,1.1c-0.1,0.1-0.3,0.2-0.4,0.3c-0.8,0.8-0.8,1.9-0.1,2.9c0.1,0.2,0.3,0.4,0.5,0.6l3.3,3.3l-1.1,1.1L441.2,193.8z"/>
	<path class="st11" d="M451.9,185.3c2.3,2.3,1.7,4.9,0.2,6.3c-1.7,1.7-4.2,1.7-6.1-0.2c-2.1-2.1-1.9-4.6-0.2-6.3
		C447.5,183.3,450,183.4,451.9,185.3z M447.1,190.3c1.3,1.3,3.1,1.6,4.2,0.5c1.1-1.1,0.9-2.9-0.5-4.3c-1-1-2.9-1.8-4.2-0.5
		C445.3,187.3,445.9,189.1,447.1,190.3z"/>
	<path class="st11" d="M449.9,177.8l1.8,1.8l1.6-1.6l0.9,0.9l-1.6,1.6l3.3,3.3c0.8,0.8,1.4,1,2,0.4c0.3-0.3,0.5-0.5,0.6-0.7l0.9,0.8
		c-0.1,0.3-0.4,0.7-0.8,1.1c-0.5,0.5-1.1,0.8-1.7,0.7c-0.6,0-1.3-0.4-2-1.2l-3.4-3.4l-1,1l-0.9-0.9l1-1l-1.5-1.5L449.9,177.8z"/>
	<path class="st11" d="M458.3,179.4c1.5,1.5,3.1,1.1,4.3,0c0.8-0.8,1.1-1.4,1.4-2l1,0.6c-0.2,0.6-0.7,1.5-1.7,2.4
		c-1.9,1.9-4.3,1.8-6.1-0.1c-1.9-1.9-2.2-4.4-0.4-6.2c2-2,4.3-0.8,5.4,0.4c0.2,0.2,0.4,0.4,0.5,0.6L458.3,179.4z M460.8,175.3
		c-0.7-0.7-2.1-1.5-3.4-0.3c-1.1,1.1-0.6,2.7,0.1,3.5L460.8,175.3z"/>
	<path class="st11" d="M460.4,167.2l1.8,1.8l1.6-1.6l0.9,0.9l-1.6,1.6l3.3,3.3c0.8,0.8,1.4,1,2,0.4c0.3-0.3,0.5-0.5,0.6-0.7l0.9,0.8
		c-0.1,0.3-0.4,0.7-0.8,1.1c-0.5,0.5-1.1,0.8-1.7,0.7c-0.6,0-1.3-0.4-2-1.2l-3.4-3.4l-1,1l-0.9-0.9l1-1l-1.5-1.5L460.4,167.2z"/>
	<path class="st11" d="M473.5,163.7c2.3,2.3,1.7,4.9,0.2,6.3c-1.7,1.7-4.2,1.7-6.1-0.2c-2.1-2.1-1.9-4.6-0.2-6.3
		C469.2,161.7,471.7,161.8,473.5,163.7z M468.7,168.6c1.3,1.3,3.1,1.6,4.2,0.5c1.1-1.1,0.9-2.9-0.5-4.3c-1-1-2.9-1.8-4.2-0.5
		C466.9,165.7,467.6,167.5,468.7,168.6z"/>
	<path class="st11" d="M473.9,161.2c-0.7-0.7-1.4-1.3-2-1.9l1-1l1.2,1.2l0.1-0.1c-0.5-1.1-0.4-2.3,0.4-3.1c0.1-0.1,0.2-0.2,0.4-0.3
		l1.1,1.1c-0.1,0.1-0.3,0.2-0.4,0.3c-0.8,0.8-0.8,1.9-0.1,2.9c0.1,0.2,0.3,0.4,0.5,0.6l3.3,3.3l-1.1,1.1L473.9,161.2z"/>
	<path class="st11" d="M481.2,144.2l7.4,7.4c0.5,0.5,1.2,1.2,1.6,1.5l-1,1l-1.1-1l0,0c0.3,1,0.1,2.3-0.9,3.3
		c-1.5,1.5-3.9,1.4-5.8-0.5c-2.1-2-2-4.6-0.5-6.1c0.9-0.9,2-1.1,2.8-0.9l0,0l-3.7-3.7L481.2,144.2z M485.5,150.7
		c-0.1-0.1-0.3-0.3-0.5-0.4c-0.9-0.5-2.1-0.5-2.9,0.3c-1.2,1.2-0.8,2.9,0.5,4.2c1.2,1.2,2.9,1.7,4.1,0.5c0.8-0.8,0.9-1.9,0.3-3
		c-0.1-0.2-0.3-0.4-0.4-0.5L485.5,150.7z"/>
	<path class="st11" d="M489.9,147.9c1.5,1.5,3.1,1.1,4.3,0c0.8-0.8,1.1-1.4,1.4-2l1,0.6c-0.2,0.6-0.7,1.5-1.7,2.4
		c-1.9,1.9-4.3,1.8-6.1-0.1s-2.2-4.4-0.4-6.2c2-2,4.3-0.8,5.4,0.4c0.2,0.2,0.4,0.4,0.5,0.6L489.9,147.9z M492.4,143.8
		c-0.7-0.7-2.1-1.5-3.4-0.3c-1.1,1.1-0.6,2.7,0.1,3.5L492.4,143.8z"/>
	<path class="st11" d="M497.1,138.1c-0.8-0.8-1.5-1.4-2.1-2l1-1l1.1,1l0,0c-0.3-1.2,0-2.4,1-3.4c1.5-1.5,3.9-1.4,5.7,0.5
		c2.2,2.2,2,4.7,0.5,6.1c-0.8,0.8-1.9,1.2-2.9,0.9l0,0l3.3,3.3l-1.1,1.1L497.1,138.1z M499.8,138.7c0.2,0.2,0.3,0.3,0.5,0.4
		c1,0.6,2.2,0.4,3-0.4c1.2-1.2,0.9-2.8-0.5-4.3c-1.2-1.2-2.9-1.6-4.1-0.5c-0.8,0.8-0.9,2-0.3,3.1c0.1,0.2,0.2,0.4,0.4,0.5
		L499.8,138.7z"/>
	<path class="st11" d="M504.2,130.8c-0.7-0.7-1.4-1.3-2-1.9l1-1l1.2,1.2l0.1-0.1c-0.5-1.1-0.4-2.3,0.4-3.1c0.1-0.1,0.2-0.2,0.4-0.3
		l1.1,1.1c-0.1,0.1-0.3,0.2-0.4,0.3c-0.8,0.8-0.8,1.9-0.1,2.9c0.1,0.2,0.3,0.4,0.5,0.6l3.3,3.3l-1.1,1.1L504.2,130.8z"/>
	<path class="st11" d="M506,121.7c0.4,0.4,0.4,1,0,1.4c-0.4,0.4-1,0.4-1.4,0c-0.4-0.4-0.4-1,0-1.4C505,121.3,505.6,121.3,506,121.7z
		 M512.7,130.8l-6.2-6.2l1.1-1.1l6.2,6.2L512.7,130.8z"/>
	<path class="st11" d="M509.9,121.3l4.7,2.3c0.8,0.4,1.4,0.7,2.1,1.1l0,0c-0.4-0.6-0.7-1.3-1.1-2.1l-2.3-4.7l1.2-1.2l3.7,8.6
		l-1.1,1.1l-8.5-3.8L509.9,121.3z"/>
	<path class="st11" d="M525.1,118.4l-0.9-0.7l0,0c0.1,0.8-0.1,1.9-1,2.8c-1.2,1.2-2.8,1-3.7,0.1c-1.5-1.5-1-3.6,1.4-6l-0.1-0.1
		c-0.5-0.5-1.6-1.3-2.8,0c-0.6,0.6-1,1.3-1.1,2.1l-1-0.5c0.2-0.8,0.7-1.8,1.5-2.6c1.9-1.9,3.6-1.1,4.9,0.2l2.3,2.3
		c0.5,0.5,1.1,1,1.6,1.4L525.1,118.4z M521.8,115.4c-1.2,1.2-2.4,2.8-1.2,4c0.7,0.7,1.6,0.6,2.1,0c0.8-0.8,0.8-1.8,0.5-2.5
		c-0.1-0.2-0.2-0.3-0.3-0.4L521.8,115.4z"/>
	<path class="st11" d="M532,111c-0.1,0.4-0.6,1.3-1.4,2.1c-1.9,1.9-4.3,1.8-6.2-0.1c-1.9-1.9-2-4.6,0-6.6c0.7-0.7,1.4-1.1,1.9-1.2
		l0.6,1.1c-0.4,0.1-1,0.4-1.6,1c-1.4,1.4-1.1,3.2,0.2,4.5c1.4,1.4,3.2,1.4,4.4,0.2c0.6-0.6,0.9-1.2,1.1-1.7L532,111z"/>
	<path class="st11" d="M526.9,100.8c0.4,0.4,0.4,1,0,1.4c-0.4,0.4-1,0.4-1.4,0c-0.4-0.4-0.4-1,0-1.4
		C525.9,100.4,526.5,100.4,526.9,100.8z M533.5,109.9l-6.2-6.2l1.1-1.1l6.2,6.2L533.5,109.9z"/>
	<path class="st11" d="M532.8,92.6l7.4,7.4c0.5,0.5,1.2,1.2,1.6,1.5l-1,1l-1.1-1l0,0c0.3,1,0.1,2.3-0.9,3.3
		c-1.5,1.5-3.9,1.4-5.8-0.5c-2.1-2-2-4.6-0.5-6.1c0.9-0.9,2-1.1,2.8-0.9l0,0l-3.7-3.7L532.8,92.6z M537.1,99.1
		c-0.1-0.1-0.3-0.3-0.5-0.4c-0.9-0.5-2.1-0.5-2.9,0.3c-1.2,1.2-0.8,2.9,0.5,4.2c1.2,1.2,2.9,1.7,4.1,0.5c0.8-0.8,0.9-1.9,0.3-3
		c-0.1-0.2-0.3-0.4-0.4-0.5L537.1,99.1z"/>
	<path class="st11" d="M547.1,96.4l-0.9-0.7l0,0c0.1,0.8-0.1,1.9-1,2.8c-1.2,1.2-2.8,1-3.7,0.1c-1.5-1.5-1-3.6,1.4-6l-0.1-0.1
		c-0.5-0.5-1.6-1.3-2.8,0c-0.6,0.6-1,1.3-1.1,2.1l-1-0.5c0.2-0.8,0.7-1.8,1.5-2.6c1.9-1.9,3.6-1.1,4.9,0.2l2.3,2.3
		c0.5,0.5,1.1,1,1.6,1.4L547.1,96.4z M543.8,93.4c-1.2,1.2-2.4,2.8-1.2,4c0.7,0.7,1.6,0.6,2.1,0c0.8-0.8,0.8-1.8,0.5-2.5
		c-0.1-0.2-0.2-0.3-0.3-0.4L543.8,93.4z"/>
	<path class="st11" d="M546.1,79.3l7.4,7.4c0.5,0.5,1.2,1.2,1.6,1.5l-1,1l-1.1-1l0,0c0.3,1,0.1,2.3-0.9,3.3
		c-1.5,1.5-3.9,1.4-5.8-0.5c-2.1-2-2-4.6-0.5-6.1c0.9-0.9,2-1.1,2.8-0.9l0,0l-3.7-3.7L546.1,79.3z M550.4,85.8
		c-0.1-0.1-0.3-0.3-0.5-0.4c-0.9-0.5-2.1-0.5-2.9,0.3c-1.2,1.2-0.8,2.9,0.5,4.2c1.2,1.2,2.9,1.7,4.1,0.5c0.8-0.8,0.9-1.9,0.3-3
		c-0.1-0.2-0.3-0.4-0.4-0.5L550.4,85.8z"/>
	<path class="st11" d="M554.8,83c1.5,1.5,3.1,1.1,4.3,0c0.8-0.8,1.1-1.4,1.4-2l1,0.6c-0.2,0.6-0.7,1.5-1.7,2.4
		c-1.9,1.9-4.3,1.8-6.1-0.1c-1.9-1.9-2.2-4.4-0.4-6.2c2-2,4.3-0.8,5.4,0.4c0.2,0.2,0.4,0.4,0.5,0.6L554.8,83z M557.2,78.9
		c-0.7-0.7-2.1-1.5-3.4-0.3c-1.1,1.1-0.6,2.7,0.1,3.5L557.2,78.9z"/>
</g>
</svg>
